/* XPM */
static char *zoom_in[] = {
/* columns rows colors chars-per-pixel */
"32 32 3 1 ",
"  c None",
". c black",
"o c white",
/* pixels */
"    ....                        ",
"  ..oooo..                      ",
" .oooooooo.                     ",
" .ooo..ooo.                     ",
".oooo..oooo.                    ",
".oo......oo.                    ",
".oo......oo.                    ",
".oooo..oooo.                    ",
" .ooo..ooo.                     ",
" .ooooooo..                     ",
"  ..oooo....                    ",
"    ....  ...                   ",
"           ...                  ",
"            ...                 ",
"             ...                ",
"              .                 ",
"                                ",
"                                ",
"                                ",
"                                ",
"                                ",
"                                ",
"                                ",
"                                ",
"                                ",
"                                ",
"                                ",
"                                ",
"                                ",
"                                ",
"                                ",
"                                "
};
