/* XPM */
static char * wait2_xpm[] = {
"32 32 3 1",
" 	c None",
".	c black",
"+	c white",
"                                ",
"                                ",
"                                ",
"                                ",
"                                ",
"                                ",
"                                ",
"             .....              ",
"           .........            ",
"          ...........           ",
"         .............          ",
"        ..+.........+..         ",
"        .+++.......+++.         ",
"       ..++++.....++++..        ",
"       ..+++++...+++++..        ",
"       ..++++++.++++++..        ",
"       ..+++++...+++++..        ",
"       ..++++.....++++..        ",
"        .+++.......+++.         ",
"        ..+.........+..         ",
"         .............          ",
"          ...........           ",
"           .........            ",
"             .....              ",
"                                ",
"                                ",
"                                ",
"                                ",
"                                ",
"                                ",
"                                ",
"                                "};
