/* XPM */
static char *default[] = {
/* columns rows colors chars-per-pixel */
"24 24 3 1 ",
"  c None",
". c white",
"X c black",
/* pixels */
"X                       ",
"XX                      ",
"X.X                     ",
"X..X                    ",
"X...X                   ",
"X....X                  ",
"X.....X                 ",
"X......X                ",
"X.......X               ",
"X........X              ",
"X.....XXXXX             ",
"X..X..X                 ",
"X.X X..X                ",
"XX  X..X                ",
"X    X..X               ",
"     X..X               ",
"      XX                ",
"                        ",
"                        ",
"                        ",
"                        ",
"                        ",
"                        ",
"                        "
};
