/* XPM */
static char *top_left_corner[] = {
/* columns rows colors chars-per-pixel */
"24 24 3 1 ",
"  c None",
". c white",
"X c black",
/* pixels */
"XXXXXXXXXXXXXXXX        ",
"X..............X        ",
"X..............X        ",
"X..XXXXXXXXXXXXX        ",
"X..X                    ",
"X..X                    ",
"X..X                    ",
"X..X                    ",
"X..X                    ",
"X..X     XXXXXXX        ",
"X..X     X.....X        ",
"X..X     X....XX        ",
"X..X     X....X         ",
"X..X     X.....X        ",
"X..X     X.XX...X       ",
"XXXX     XXX X...X      ",
"              X...X XXX ",
"               X...XX.X ",
"                X.....X ",
"                 X....X ",
"                XX....X ",
"                X.....X ",
"                XXXXXXX ",
"                        "
};
