/* XPM */
static char *alias[] = {
/* columns rows colors chars-per-pixel */
"24 24 3 1 ",
"  c None",
". c white",
"X c black",
/* pixels */
"X                       ",
"XX          XXXXXXXXX   ",
"X.X         XX......X   ",
"X..X         XX.....X   ",
"X...X         X.....X   ",
"X....X       X......X   ",
"X.....X     X...XX..X   ",
"X......X    X..X  X.X   ",
"X.......X   X..X   XX   ",
"X........X  X.X     X   ",
"X.....XXXXX X.X         ",
"X..X..X     X.X         ",
"X.X X..X    XXX         ",
"XX  X..X                ",
"X    X..X               ",
"     X..X               ",
"      XX                ",
"                        ",
"                        ",
"                        ",
"                        ",
"                        ",
"                        ",
"                        "
};
