/* XPM */
static char *_2_center_ptr[] = {
/* columns rows colors chars-per-pixel */
"32 32 3 1 ",
"  c None",
". c black",
"X c white",
/* pixels */
"     ..                         ",
"    ....                        ",
"    .XX.                        ",
"   ..XX..                       ",
"   .XXXX.                       ",
"  ..XXXX..                      ",
"  .XXXXXX.                      ",
" ..XXXXXX..                     ",
" .XXXXXXXX.                     ",
"..XXXXXXXX..                    ",
".XX..XX..XX.                    ",
".X...XX...X.                    ",
"... .XX. ...                    ",
"    .XX.                        ",
"    .XX.                        ",
"    .XX.                        ",
"    ....                        ",
"                                ",
"                                ",
"                                ",
"                                ",
"                                ",
"                                ",
"                                ",
"                                ",
"                                ",
"                                ",
"                                ",
"                                ",
"                                ",
"                                ",
"                                "
};
