/* XPM */
static char *_2_top_right_corner[] = {
/* columns rows colors chars-per-pixel */
"32 32 3 1 ",
"  c None",
". c black",
"X c white",
/* pixels */
"       ................         ",
"       .XXXXXXXXXXXXXX.         ",
"       .XXXXXXXXXXXXXX.         ",
"       .............XX.         ",
"                   .XX.         ",
"                   .XX.         ",
"                   .XX.         ",
"                   .XX.         ",
"                   .XX.         ",
"       .......     .XX.         ",
"       .XXXXX.     .XX.         ",
"       ..XXXX.     .XX.         ",
"        .XXXX.     .XX.         ",
"       .XXXXX.     .XX.         ",
"      .XXX..X.     .XX.         ",
"     .XXX. ...     ....         ",
"... .XXX.                       ",
".X..XXX.                        ",
".XXXXX.                         ",
".XXXX.                          ",
".XXXX..                         ",
".XXXXX.                         ",
".......                         ",
"                                ",
"                                ",
"                                ",
"                                ",
"                                ",
"                                ",
"                                ",
"                                ",
"                                "
};
