/* XPM */
static char *_2_bottom_left_corner[] = {
/* columns rows colors chars-per-pixel */
"42 42 3 1 ",
"  c None",
". c black",
"X c white",
/* pixels */
"                .......                   ",
"                .XXXXX.                   ",
"                ..XXXX.                   ",
"                 .XXXX.                   ",
"                .XXXXX.                   ",
"               .XXX..X.                   ",
"              .XXX. ...                   ",
"....     ... .XXX.                        ",
".XX.     .X..XXX.                         ",
".XX.     .XXXXX.                          ",
".XX.     .XXXX.                           ",
".XX.     .XXXX..                          ",
".XX.     .XXXXX.                          ",
".XX.     .......                          ",
".XX.                                      ",
".XX.                                      ",
".XX.                                      ",
".XX.                                      ",
".XX.                                      ",
".XX.............                          ",
".XXXXXXXXXXXXXX.                          ",
".XXXXXXXXXXXXXX.                          ",
"................                          ",
"                                          ",
"                                          ",
"                                          ",
"                                          ",
"                                          ",
"                                          ",
"                                          ",
"                                          ",
"                                          ",
"                                          ",
"                                          ",
"                                          ",
"                                          ",
"                                          ",
"                                          ",
"                                          ",
"                                          ",
"                                          ",
"                                          "
};
