/* XPM */
static char * 42_center_ptr_xpm[] = {
"42 42 3 1",
" 	c None",
".	c #000000",
"+	c #FFFFFF",
"      ..                                  ",
"     ....                                 ",
"     .++.                                 ",
"    ..++..                                ",
"    .++++.                                ",
"   ..++++..                               ",
"   .++++++.                               ",
"  ..++++++..                              ",
"  .++++++++.                              ",
" ..++++++++..                             ",
" .++++++++++.                             ",
"..++..++..++..                            ",
".++...++...++.                            ",
".+.. .++. ..+.                            ",
"...  .++.  ...                            ",
"     .++.                                 ",
"     ....                                 ",
"                                          ",
"                                          ",
"                                          ",
"                                          ",
"                                          ",
"                                          ",
"                                          ",
"                                          ",
"                                          ",
"                                          ",
"                                          ",
"                                          ",
"                                          ",
"                                          ",
"                                          ",
"                                          ",
"                                          ",
"                                          ",
"                                          ",
"                                          ",
"                                          ",
"                                          ",
"                                          ",
"                                          ",
"                                          "};
