/* XPM */
static char *_2_left_arrow[] = {
/* columns rows colors chars-per-pixel */
"42 42 3 1 ",
"  c None",
". c black",
"X c white",
/* pixels */
"    .                                     ",
"   ..                                     ",
"  .X.                                     ",
" .XX............                          ",
".XXXXXXXXXXXXXX.                          ",
".XXXXXXXXXXXXXX.                          ",
" .XX............                          ",
"  .X.                                     ",
"   ..                                     ",
"    .                                     ",
"                                          ",
"                                          ",
"                                          ",
"                                          ",
"                                          ",
"                                          ",
"                                          ",
"                                          ",
"                                          ",
"                                          ",
"                                          ",
"                                          ",
"                                          ",
"                                          ",
"                                          ",
"                                          ",
"                                          ",
"                                          ",
"                                          ",
"                                          ",
"                                          ",
"                                          ",
"                                          ",
"                                          ",
"                                          ",
"                                          ",
"                                          ",
"                                          ",
"                                          ",
"                                          ",
"                                          ",
"                                          "
};
