/* XPM */
static char *_2_left_side[] = {
/* columns rows colors chars-per-pixel */
"42 42 3 1 ",
"  c None",
". c black",
"X c white",
/* pixels */
"....                                      ",
".XX.                                      ",
".XX.                                      ",
".XX.                                      ",
".XX.       ..      ..                     ",
".XX.      .X.      .X.                    ",
".XX.     .XX........XX.                   ",
".XX.    .XXXXXXXXXXXXXX.                  ",
".XX.    .XXXXXXXXXXXXXX.                  ",
".XX.     .XX........XX.                   ",
".XX.      .X.      .X.                    ",
".XX.       ..      ..                     ",
".XX.                                      ",
".XX.                                      ",
".XX.                                      ",
"....                                      ",
"                                          ",
"                                          ",
"                                          ",
"                                          ",
"                                          ",
"                                          ",
"                                          ",
"                                          ",
"                                          ",
"                                          ",
"                                          ",
"                                          ",
"                                          ",
"                                          ",
"                                          ",
"                                          ",
"                                          ",
"                                          ",
"                                          ",
"                                          ",
"                                          ",
"                                          ",
"                                          ",
"                                          ",
"                                          ",
"                                          "
};
