/* XPM */
static char *_2_size_bdiag[] = {
/* columns rows colors chars-per-pixel */
"42 42 3 1 ",
"  c None",
". c black",
"X c white",
/* pixels */
"       .......                            ",
"       .XXXXX.                            ",
"       ..XXXX.                            ",
"        .XXXX.                            ",
"       .XXXXX.                            ",
"      .XXX..X.                            ",
"     .XXX. ...                            ",
"... .XXX.                                 ",
".X..XXX.                                  ",
".XXXXX.                                   ",
".XXXX.                                    ",
".XXXX..                                   ",
".XXXXX.                                   ",
".......                                   ",
"                                          ",
"                                          ",
"                                          ",
"                                          ",
"                                          ",
"                                          ",
"                                          ",
"                                          ",
"                                          ",
"                                          ",
"                                          ",
"                                          ",
"                                          ",
"                                          ",
"                                          ",
"                                          ",
"                                          ",
"                                          ",
"                                          ",
"                                          ",
"                                          ",
"                                          ",
"                                          ",
"                                          ",
"                                          ",
"                                          ",
"                                          ",
"                                          "
};
