/* XPM */
static char *_2_size_fdiag[] = {
/* columns rows colors chars-per-pixel */
"42 42 3 1 ",
"  c None",
". c black",
"X c white",
/* pixels */
".......                                   ",
".XXXXX.                                   ",
".XXXX..                                   ",
".XXXX.                                    ",
".XXXXX.                                   ",
".X..XXX.                                  ",
"... .XXX.                                 ",
"     .XXX. ...                            ",
"      .XXX..X.                            ",
"       .XXXXX.                            ",
"        .XXXX.                            ",
"       ..XXXX.                            ",
"       .XXXXX.                            ",
"       .......                            ",
"                                          ",
"                                          ",
"                                          ",
"                                          ",
"                                          ",
"                                          ",
"                                          ",
"                                          ",
"                                          ",
"                                          ",
"                                          ",
"                                          ",
"                                          ",
"                                          ",
"                                          ",
"                                          ",
"                                          ",
"                                          ",
"                                          ",
"                                          ",
"                                          ",
"                                          ",
"                                          ",
"                                          ",
"                                          ",
"                                          ",
"                                          ",
"                                          "
};
