/* XPM */
static char *_2_up_arrow[] = {
/* columns rows colors chars-per-pixel */
"42 42 3 1 ",
"  c None",
". c black",
"X c white",
/* pixels */
"    ..                                    ",
"   .XX.                                   ",
"  .XXXX.                                  ",
" .XXXXXX.                                 ",
"....XX....                                ",
"   .XX.                                   ",
"   .XX.                                   ",
"   .XX.                                   ",
"   .XX.                                   ",
"   .XX.                                   ",
"   .XX.                                   ",
"   .XX.                                   ",
"   .XX.                                   ",
"   .XX.                                   ",
"   .XX.                                   ",
"   ....                                   ",
"                                          ",
"                                          ",
"                                          ",
"                                          ",
"                                          ",
"                                          ",
"                                          ",
"                                          ",
"                                          ",
"                                          ",
"                                          ",
"                                          ",
"                                          ",
"                                          ",
"                                          ",
"                                          ",
"                                          ",
"                                          ",
"                                          ",
"                                          ",
"                                          ",
"                                          ",
"                                          ",
"                                          ",
"                                          ",
"                                          "
};
