/* XPM */
static char *_2_x_cursor[] = {
/* columns rows colors chars-per-pixel */
"42 42 3 1 ",
"  c None",
". c black",
"X c white",
/* pixels */
"....        ....                          ",
".XXX.      .XXX.                          ",
".XXXX.    .XXXX.                          ",
".XXXXX.  .XXXXX.                          ",
" .XXXXX..XXXXX.                           ",
"  .XXXXXXXXXX.                            ",
"   .XXXXXXXX.                             ",
"    .XXXXXX.                              ",
"    .XXXXXX.                              ",
"   .XXXXXXXX.                             ",
"  .XXXXXXXXXX.                            ",
" .XXXXX..XXXXX.                           ",
".XXXXX.  .XXXXX.                          ",
".XXXX.    .XXXX.                          ",
".XXX.      .XXX.                          ",
"....        ....                          ",
"                                          ",
"                                          ",
"                                          ",
"                                          ",
"                                          ",
"                                          ",
"                                          ",
"                                          ",
"                                          ",
"                                          ",
"                                          ",
"                                          ",
"                                          ",
"                                          ",
"                                          ",
"                                          ",
"                                          ",
"                                          ",
"                                          ",
"                                          ",
"                                          ",
"                                          ",
"                                          ",
"                                          ",
"                                          ",
"                                          "
};
