/* XPM */
static char *no_drop[] = {
/* columns rows colors chars-per-pixel */
"32 32 3 1 ",
"  c None",
". c black"
"o c white",
/* pixels */
"o                               ",
"oo                              ",
"o.o                             ",
"o..o                            ",
"o...o                           ",
"o....o                          ",
"o.....o                         ",
"o......o                        ",
"o.......o                       ",
"o........o                      ",
"o.....ooooo                     ",
"o..o..o                         ",
"o.o o..o                        ",
"oo  o..o      ooooo             ",
"o    o..o   oo.....oo           ",
"     o..o  o.........o          ",
"      oo  o...ooooo...o         ",
"         o...ooooooo...o        ",
"        o.....ooooooo...o       ",
"        o..o...ooooooo..o       ",
"       o...oo...oooooo...o      ",
"       o..oooo...oooooo..o      ",
"       o..ooooo...ooooo..o      ",
"       o..oooooo...oooo..o      ",
"       o...oooooo...oo...o      ",
"        o..ooooooo...o..o       ",
"        o...ooooooo.....o       ",
"         o...ooooooo...o        ",
"          o...ooooo...o         ",
"           o.........o          ",
"            oo.....oo           ",
"              ooooo             "
};
