/* XPM */
static char *top_left_corner[] = {
/* columns rows colors chars-per-pixel */
"32 32 3 1 ",
"  c None",
". c black",
"o c white",
/* pixels */
"oooooooooooooooo                ",
"o..............o                ",
"o..............o                ",
"o..ooooooooooooo                ",
"o..o                            ",
"o..o                            ",
"o..o                            ",
"o..o                            ",
"o..o                            ",
"o..o     ooooooo                ",
"o..o     o.....o                ",
"o..o     o....oo                ",
"o..o     o....o                 ",
"o..o     o.....o                ",
"o..o     o.oo...o               ",
"oooo     ooo o...o              ",
"              o...o ooo         ",
"               o...oo.o         ",
"                o.....o         ",
"                 o....o         ",
"                oo....o         ",
"                o.....o         ",
"                ooooooo         ",
"                                ",
"                                ",
"                                ",
"                                ",
"                                ",
"                                ",
"                                ",
"                                ",
"                                "
};
