/* XPM */
static char * not_allowed_xpm[] = {
"32 32 3 1",
"  c None",
". c white",
"o c black",
"                                ",
"                                ",
"                                ",
"                                ",
"                                ",
"                                ",
"                                ",
"                                ",
"             .....              ",
"           .........            ",
"          ...ooooo...           ",
"         ...ooooooo...          ",
"        .....ooooooo...         ",
"        ..o...ooooooo..         ",
"       ...oo...oooooo...        ",
"       ..oooo...oooooo..        ",
"       ..ooooo...ooooo..        ",
"       ..oooooo...oooo..        ",
"       ...oooooo...oo...        ",
"        ..ooooooo...o..         ",
"        ...ooooooo.....         ",
"         ...ooooooo...          ",
"          ...ooooo...           ",
"           .........            ",
"             .....              ",
"                                ",
"                                ",
"                                ",
"                                ",
"                                ",
"                                ",
"                                "};
