/* XPM */
static char * progress4_xpm[] = {
"32 32 4 1",
" 	c None",
".	c white",
"+	c black",
"@	c #F3F3F3",
".                               ",
"..                              ",
".+.                             ",
".++.                            ",
".+++.                           ",
".++++.                          ",
".+++++.                         ",
".++++++.                        ",
".+++++++.                       ",
".++++++++.                      ",
".+++@@.....                     ",
".++.                            ",
".+.                             ",
"..                              ",
".       +++++                   ",
"      +++++++++                 ",
"     ++.......++                ",
"    ++.........++               ",
"   ++++.......++++              ",
"   +++++.....+++++              ",
"  +++++++...+++++++             ",
"  ++++++++.++++++++             ",
"  +++++++++++++++++             ",
"  ++++++++.++++++++             ",
"  +++++++...+++++++             ",
"   +++++.....+++++              ",
"   ++++.......++++              ",
"    ++.........++               ",
"     ++.......++                ",
"      +++++++++                 ",
"        +++++                   ",
"                                "};
