/* XPM */
static char *left_arrow[] = {
/* columns rows colors chars-per-pixel */
"32 32 3 1 ",
"  c None",
". c white",
"o c black",
/* pixels */
"                                ",
"                                ",
"                                ",
"                                ",
"                                ",
"                                ",
"                                ",
"                                ",
"                                ",
"                                ",
"                                ",
"    o                           ",
"   oo                           ",
"  o.o                           ",
" o..oooooooooooo                ",
"o..............o                ",
"o..............o                ",
" o..oooooooooooo                ",
"  o.o                           ",
"   oo                           ",
"    o                           ",
"                                ",
"                                ",
"                                ",
"                                ",
"                                ",
"                                ",
"                                ",
"                                ",
"                                ",
"                                ",
"                                "
};
