/* XPM */
static char *_2_no_drop[] = {
/* columns rows colors chars-per-pixel */
"32 32 4 1 ",
"  c None",
". c black",
"X c red",
"o c white",
/* pixels */
".                               ",
"..                              ",
".o.                             ",
".oo.                            ",
".ooo.                           ",
".oooo.                          ",
".ooooo.                         ",
".oooooo.                        ",
".ooooooo.                       ",
".oooooooo.                      ",
".ooooo.....                     ",
".oo.oo.        .....            ",
".o. .oo.      .XXXXX.           ",
"..  .oo.     .X.....X.          ",
".    .oo.   .XX.oooo.X.         ",
"     .oo.  .X..X.oooo.X.        ",
"      ..   .X.o.X.ooo.X.        ",
"           .X.oo.X.oo.X.        ",
"           .X.ooo.X.o.X.        ",
"           .X.oooo.X..X.        ",
"            .X.oooo.XX.         ",
"             .X.....X.          ",
"              .XXXXX.           ",
"               .....            ",
"                                ",
"                                ",
"                                ",
"                                ",
"                                ",
"                                ",
"                                ",
"                                "
};
