/* XPM */
static char *dummy[]={
"42 42 4 1",
"# c None",
". c #000000",
"b c #ff0000",
"a c #ffffff",
".#########################################",
"..########################################",
".a.#######################################",
".aa.######################################",
".aaa.#####################################",
".aaaa.####################################",
".aaaaa.###################################",
".aaaaaa.##################################",
".aaaaaaa.#################################",
".aaaaaaaa.################################",
".aaaaaaaaa.###############################",
".aaaaaaaaaa.##############################",
".aaaaaa......#############################",
".aaa.aa.##################################",
".aa.#.aa.########.....####################",
".a.##.aa.#######.bbbbb.###################",
"..####.aa.#####.b.....b.##################",
".#####.aa.####.bb.aaaa.b.#################",
"#######..####.b..b.aaaa.b.################",
"#############.b.a.b.aaa.b.################",
"#############.b.aa.b.aa.b.################",
"#############.b.aaa.b.a.b.################",
"#############.b.aaaa.b..b.################",
"##############.b.aaaa.bb.#################",
"###############.b.....b.##################",
"################.bbbbb.###################",
"#################.....####################",
"##########################################",
"##########################################",
"##########################################",
"##########################################",
"##########################################",
"##########################################",
"##########################################",
"##########################################",
"##########################################",
"##########################################",
"##########################################",
"##########################################",
"##########################################",
"##########################################",
"##########################################"};
