/* XPM */
static char *dummy[]={
"42 42 4 1",
"# c None",
". c #000000",
"b c #ffff00",
"a c #ffffff",
".#########################################",
"..########################################",
".a.#######################################",
".aa.######################################",
".aaa.#####################################",
".aaaa.####################################",
".aaaaa.###################################",
".aaaaaa.##################################",
".aaaaaaa.#################################",
".aaaaaaaa.################################",
".aaaaaaaaa.###############################",
".aaaaaaaaaa.##############################",
".aaaa........#############################",
".aaa.#####################################",
".aa.######################################",
".a.####.....##############################",
"..####.bbbbb.#############################",
".####..bbbbb..############################",
"####....bbb....###########################",
"####.....b.....###########################",
"####...........###########################",
"####.....b.....###########################",
"####....bbb....###########################",
"#####..bbbbb..############################",
"######.bbbbb.#############################",
"#######.....##############################",
"##########################################",
"##########################################",
"##########################################",
"##########################################",
"##########################################",
"##########################################",
"##########################################",
"##########################################",
"##########################################",
"##########################################",
"##########################################",
"##########################################",
"##########################################",
"##########################################",
"##########################################",
"##########################################"};
