/* XPM */
static char * zoom_in_xpm[] = {
"24 24 4 1",
" 	c None",
".	c white",
"+	c black",
"@	c green",
"                        ",
"                        ",
"                        ",
"         ....           ",
"       ..++++..         ",
"      .++....++.        ",
"     .+........+.       ",
"    .+...++++...+.      ",
"    .+...+@@+...+.      ",
"   .+..+++@@+++..+.     ",
"   .+..+@@@@@@+..+.     ",
"   .+..+@@@@@@+..+.     ",
"   .+..+++@@+++..+.     ",
"    .+...+@@+...+.      ",
"    .+...++++...+.      ",
"     .+........++.      ",
"      .++....+++++.     ",
"       ..++++...+++.    ",
"         ....   .+++.   ",
"                 .+++.  ",
"                  .+++. ",
"                   .+++.",
"                    .+. ",
"                     .  "};
