/* XPM */
static char *right_side[] = {
/* columns rows colors chars-per-pixel */
"32 32 3 1 ",
"  c None",
". c black",
"o c white",
/* pixels */
"                                ",
"                                ",
"                                ",
"                                ",
"                                ",
"                                ",
"                                ",
"                                ",
"                            oooo",
"                            o..o",
"                            o..o",
"                            o..o",
"           oo      oo       o..o",
"          o.o      o.o      o..o",
"         o..oooooooo..o     o..o",
"        o..............o    o..o",
"        o..............o    o..o",
"         o..oooooooo..o     o..o",
"          o.o      o.o      o..o",
"           oo      oo       o..o",
"                            o..o",
"                            o..o",
"                            o..o",
"                            oooo",
"                                ",
"                                ",
"                                ",
"                                ",
"                                ",
"                                ",
"                                ",
"                                "
};
