/* XPM */
static char * progress2_xpm[] = {
"24 24 7 1",
" 	c None",
".	c white",
"+	c black",
"@	c red",
"#	c yellow",
"$	c blue",
"%	c green",
".                       ",
"..                      ",
".+.                     ",
".++.                    ",
".+++.                   ",
".++++.                  ",
".+++++.                 ",
".++++++.                ",
".+++++++.               ",
".+++......              ",
".++.                    ",
".+.                     ",
"..    +++++             ",
".    +@@@@@+            ",
"    ++@@@@@++           ",
"   +##+@@@+$$+          ",
"   +###+@+$$$+          ",
"   +####+$$$$+          ",
"   +###+%+$$$+          ",
"   +##+%%%+$$+          ",
"    ++%%%%%++           ",
"     +%%%%%+            ",
"      +++++             ",
"                        "};
