/* XPM */
static char *zoom_in[] = {
/* columns rows colors chars-per-pixel */
"24 24 3 1 ",
"  c None",
". c black",
"X c white",
/* pixels */
"    ....                ",
"  ..XXXX..              ",
" .XXXXXXXX.             ",
" .XXX..XXX.             ",
".XXXX..XXXX.            ",
".XX......XX.            ",
".XX......XX.            ",
".XXXX..XXXX.            ",
" .XXX..XXX.             ",
" .XXXXXXX..             ",
"  ..XXXX....            ",
"    ....  ...           ",
"           ...          ",
"            ...         ",
"             ...        ",
"              .         ",
"                        ",
"                        ",
"                        ",
"                        ",
"                        ",
"                        ",
"                        ",
"                        "
};
