/* XPM */
static char * 24_pencil_xpm[] = {
"24 24 6 1",
" 	c None",
".	c #FFFFFF",
"+	c #000000",
"@	c #FF0000",
"#	c #FFFF00",
"$	c #00FF00",
"               ...      ",
"              .+++.     ",
"             .+@@++.    ",
"            .+@@@@+.    ",
"           .+++@@@+.    ",
"          .++#++@+.     ",
"         .++###++.      ",
"        .++###++.       ",
"       .++###++.        ",
"      .++###++.         ",
"     .++###++.          ",
"    .++###++.           ",
"   .++###++.            ",
"  .++###++.             ",
" .++###++.              ",
" .+$+#++.               ",
".++$$++.                ",
".+$+++.                 ",
".+++..                  ",
"....                    ",
"                        ",
"                        ",
"                        ",
"                        "};
