/* XPM */
static char * 24_zoom_in_xpm[] = {
"24 24 4 1",
" 	c None",
".	c #FFFFFF",
"+	c #000000",
"@	c #00FF00",
"      ....              ",
"    ..++++..            ",
"   .++....++.           ",
"  .+........+.          ",
" .+...++++...+.         ",
" .+...+@@+...+.         ",
".+..+++@@+++..+.        ",
".+..+@@@@@@+..+.        ",
".+..+@@@@@@+..+.        ",
".+..+++@@+++..+.        ",
" .+...+@@+...+.         ",
" .+...++++...+.         ",
"  .+........++.         ",
"   .++....+++++.        ",
"    ..++++...+++.       ",
"      ....   .+++.      ",
"              .+++.     ",
"               .+++.    ",
"                .+++.   ",
"                 .+.    ",
"                  .     ",
"                        ",
"                        ",
"                        "};
