/* XPM */
static char * zoom_out_xpm[] = {
"24 24 4 1",
" 	c None",
".	c white",
"+	c black",
"@	c red",
"                        ",
"                        ",
"                        ",
"         ....           ",
"       ..++++..         ",
"      .++....++.        ",
"     .+........+.       ",
"    .+..........+.      ",
"    .+..........+.      ",
"   .+..++++++++..+.     ",
"   .+..+@@@@@@+..+.     ",
"   .+..+@@@@@@+..+.     ",
"   .+..++++++++..+.     ",
"    .+..........+.      ",
"    .+..........+.      ",
"     .+........++.      ",
"      .++....+++++.     ",
"       ..++++...+++.    ",
"         ....   .+++.   ",
"                 .+++.  ",
"                  .+++. ",
"                   .+++.",
"                    .+. ",
"                     .  "};
