/* XPM */
static char * 24_zoom_out_xpm[] = {
"24 24 4 1",
" 	c None",
".	c #FFFFFF",
"+	c #000000",
"@	c #FF0000",
"      ....              ",
"    ..++++..            ",
"   .++....++.           ",
"  .+........+.          ",
" .+..........+.         ",
" .+..........+.         ",
".+..++++++++..+.        ",
".+..+@@@@@@+..+.        ",
".+..+@@@@@@+..+.        ",
".+..++++++++..+.        ",
" .+..........+.         ",
" .+..........+.         ",
"  .+........++.         ",
"   .++....+++++.        ",
"    ..++++...+++.       ",
"      ....   .+++.      ",
"              .+++.     ",
"               .+++.    ",
"                .+++.   ",
"                 .+.    ",
"                  .     ",
"                        ",
"                        ",
"                        "};
