/* XPM */
static char *color_picker[] = {
/* columns rows colors chars-per-pixel */
"32 32 3 1 ",
"  c None",
". c black",
"o c white",
/* pixels */
"                                ",
"                                ",
"                                ",
"                                ",
"                                ",
"                                ",
"                                ",
"                                ",
"                                ",
"                                ",
"                                ",
"                                ",
"                                ",
"                                ",
"           oooo                 ",
"          o....o                ",
"         o......o               ",
"         o.......o              ",
"      o o........o              ",
"     o.oo........o              ",
"    o...o........o              ",
"     o..........o               ",
"      o.......oo                ",
"     o.o...ooo                  ",
"    o.ooo...o                   ",
"   o.ooo.o...o                  ",
"  o.ooo.o o.o                   ",
" o.ooo.o   o                    ",
"o.ooo.o                         ",
"o.oo.o                          ",
". ..o                           ",
"o.oo                            "
};
