/* XPM */
static char *cell[] = {
/* columns rows colors chars-per-pixel */
"32 32 3 1 ",
"  c None",
". c black",
"o c white",
/* pixels */
"                                ",
"                                ",
"                                ",
"                                ",
"                                ",
"                                ",
"                                ",
"                                ",
"                                ",
"              ....              ",
"              .oo.              ",
"              .oo.              ",
"              .oo.              ",
"              .oo.              ",
"         ......oo......         ",
"         .oooooooooooo.         ",
"         .oooooooooooo.         ",
"         ......oo......         ",
"              .oo.              ",
"              .oo.              ",
"              .oo.              ",
"              .oo.              ",
"              ....              ",
"                                ",
"                                ",
"                                ",
"                                ",
"                                ",
"                                ",
"                                ",
"                                ",
"                                "
};
