/* XPM */
static char *size_hor[] = {
/* columns rows colors chars-per-pixel */
"32 32 3 1 ",
"  c None",
". c black",
"o c white",
/* pixels */
"                                ",
"                                ",
"                                ",
"                                ",
"                                ",
"                                ",
"                                ",
"                                ",
"                                ",
"                                ",
"                                ",
"                                ",
"           oo      oo           ",
"          o.o      o.o          ",
"         o..oooooooo..o         ",
"        o..............o        ",
"        o..............o        ",
"         o..oooooooo..o         ",
"          o.o      o.o          ",
"           oo      oo           ",
"                                ",
"                                ",
"                                ",
"                                ",
"                                ",
"                                ",
"                                ",
"                                ",
"                                ",
"                                ",
"                                ",
"                                "
};
