/* XPM */
static char *wayland_cursor[] = {
/* columns rows colors chars-per-pixel */
"32 32 3 1 ",
"  c None",
". c black",
"o c white",
/* pixels */
"                                ",
"                                ",
"                                ",
"                                ",
"                                ",
"                                ",
"                                ",
"                                ",
"                                ",
"                                ",
"        oo     oo     oo        ",
"       o..o   o..o   o..o       ",
"       o..o  o....o  o..o       ",
"       o...o o....o o...o       ",
"        o..o o.oo.o o..o        ",
"        o..o o.oo.o o..o        ",
"        o..o o.oo.o o..o        ",
"        o..oo..oo..oo..o        ",
"         o..o.o  o.o..o         ",
"         o..o.o  o.o..o         ",
"         o....o  o....o         ",
"         o....o  o...o          ",
"          o..o    o..o          ",
"           oo      oo           ",
"                                ",
"                                ",
"                                ",
"                                ",
"                                ",
"                                ",
"                                ",
"                                "
};
