/* XPM */
static char * wait2_xpm[] = {
"24 24 3 1",
" 	g None",
".	g #000000",
"+	g #FFFFFF",
"        .               ",
"       ...              ",
"      .+.               ",
"     .+.+.              ",
"    .+.+++.             ",
"   .+.+++++.            ",
"  .+.+++++++.           ",
" .+.++++++++.           ",
"...+++++++++.           ",
" . .++++++++.           ",
"    .+++++++..          ",
"     .+++++++.....      ",
"      .....+++++++.     ",
"          ..+++++++.    ",
"           .+.+.+.++. . ",
"           .++.+.+.++...",
"           .+.+.+.++.+. ",
"           .++.+.++.+.  ",
"            .++.++.+.   ",
"             .+++.+.    ",
"              .+.+.     ",
"               .+.      ",
"              ...       ",
"               .        "};
