/* XPM */
static char * color_picker_xpm[] = {
"24 24 4 1",
" 	c None",
".	c white",
"+	c black",
"@	c green",
"                        ",
"                        ",
"                        ",
"                        ",
"                        ",
"                        ",
"           ....         ",
"          .++++.        ",
"         .++++++.       ",
"         .+++++++.      ",
"      . .++++++++.      ",
"     .+..++++++++.      ",
"    .+++.++++++++.      ",
"     .++++++++++.       ",
"      .+++++++..        ",
"     .+.+++...          ",
"    .+...+++.           ",
"   .+...+.+++.          ",
"  .+..@+. .+.           ",
" .+..@+.   .            ",
".+.@@+.                 ",
".+@@+.                  ",
"+ ++.                   ",
".+..                    "};
