/* XPM */
static char * progress3_xpm[] = {
"24 24 7 1",
" 	c None",
".	c black",
"+	c white",
"@	c yellow",
"#	c red",
"$	c green",
"%	c blue",
".                       ",
"..                      ",
".+.                     ",
".++.                    ",
".+++.                   ",
".++++.                  ",
".+++++.                 ",
".++++++.                ",
".+++++++.               ",
".+++......              ",
".++.                    ",
".+.                     ",
"..    .....             ",
".    .@@.##.            ",
"    .@@@.###.           ",
"   .@@@@.####.          ",
"   .@@@@.####.          ",
"   ...........          ",
"   .$$$$.%%%%.          ",
"   .$$$$.%%%%.          ",
"    .$$$.%%%.           ",
"     .$$.%%.            ",
"      .....             ",
"                        "};
