/* XPM */
static char * progress6_xpm[] = {
"24 24 7 1",
" 	c None",
".	c black",
"+	c white",
"@	c green",
"#	c blue",
"$	c yellow",
"%	c red",
".                       ",
"..                      ",
".+.                     ",
".++.                    ",
".+++.                   ",
".++++.                  ",
".+++++.                 ",
".++++++.                ",
".+++++++.               ",
".+++......              ",
".++.                    ",
".+.                     ",
"..    .....             ",
".    .@@@@@.            ",
"    ..@@@@@..           ",
"   .##.@@@.$$.          ",
"   .###.@.$$$.          ",
"   .####.$$$$.          ",
"   .###.%.$$$.          ",
"   .##.%%%.$$.          ",
"    ..%%%%%..           ",
"     .%%%%%.            ",
"      .....             ",
"                        "};
