/* XPM */
static char * wait5_xpm[] = {
"24 24 6 1",
" 	c None",
".	c black",
"+	c green",
"@	c yellow",
"#	c blue",
"$	c red",
"                        ",
"                        ",
"                        ",
"         .....          ",
"       .........        ",
"      ..+++.@@@..       ",
"     ..++++.@@@@..      ",
"    ..+++++.@@@@@..     ",
"    .++++++.@@@@@@.     ",
"   ..++++++.@@@@@@..    ",
"   ..++++++.@@@@@@..    ",
"   .................    ",
"   ..######.$$$$$$..    ",
"   ..######.$$$$$$..    ",
"    .######.$$$$$$.     ",
"    ..#####.$$$$$..     ",
"     ..####.$$$$..      ",
"      ..###.$$$..       ",
"       .........        ",
"         .....          ",
"                        ",
"                        ",
"                        ",
"                        "};
