/* XPM */
static char *context_menu[] = {
/* columns rows colors chars-per-pixel */
"24 24 3 1 ",
"  c None",
". c black",
"X c white",
/* pixels */
"X                       ",
"XX                      ",
"X.X                     ",
"X..X                    ",
"X...X                   ",
"X....X                  ",
"X.....X                 ",
"X......XXXXXXXXXX       ",
"X.......X.......X       ",
"X...............X       ",
"X.....XXX.XXXXX.X       ",
"X..X..X X.......X       ",
"X.X X..XX.XXXXX.X       ",
"XX  X..XX.......X       ",
"X    X..X.XXXXX.X       ",
"     X..X.......X       ",
"      XXXXXXXXXXX       ",
"                        ",
"                        ",
"                        ",
"                        ",
"                        ",
"                        ",
"                        "
};
