/* XPM */
static char * wait4_xpm[] = {
"24 24 3 1",
" 	c None",
".	c black",
"+	c white",
"                        ",
"                        ",
"                        ",
"         .....          ",
"       .........        ",
"      ..+++++++..       ",
"     ..+++++++++..      ",
"    ....+++++++....     ",
"    .....+++++.....     ",
"   .......+++.......    ",
"   ........+........    ",
"   .................    ",
"   ........+........    ",
"   .......+++.......    ",
"    .....+++++.....     ",
"    ....+++++++....     ",
"     ..+++++++++..      ",
"      ..+++++++..       ",
"       .........        ",
"         .....          ",
"                        ",
"                        ",
"                        ",
"                        "};
