/* XPM */
static char *alias[] = {
/* columns rows colors chars-per-pixel */
"32 32 3 1 ",
"  c None",
". c white",
"o c black",
/* pixels */
"o                               ",
"oo          ooooooooo           ",
"o.o         oo......o           ",
"o..o         oo.....o           ",
"o...o         o.....o           ",
"o....o       o......o           ",
"o.....o     o...oo..o           ",
"o......o    o..o  o.o           ",
"o.......o   o..o   oo           ",
"o........o  o.o     o           ",
"o.....ooooo o.o                 ",
"o..o..o     o.o                 ",
"o.o o..o    ooo                 ",
"oo  o..o                        ",
"o    o..o                       ",
"     o..o                       ",
"      oo                        ",
"                                ",
"                                ",
"                                ",
"                                ",
"                                ",
"                                ",
"                                ",
"                                ",
"                                ",
"                                ",
"                                ",
"                                ",
"                                ",
"                                ",
"                                "
};
