/* XPM */
static char * progress2_xpm[] = {
"32 32 3 1",
" 	c None",
".	c white",
"+	c black",
".                               ",
"..                              ",
".+.                             ",
".++.                            ",
".+++.                           ",
".++++.                          ",
".+++++.                         ",
".++++++.                        ",
".+++++++.                       ",
".+++......                      ",
".++.                            ",
".+.                             ",
"..     +++++                    ",
".    +++++++++                  ",
"    +++++++++++                 ",
"   +++++++++++++                ",
"  ++.+++++++++.++               ",
"  +...+++++++...+               ",
" ++....+++++....++              ",
" ++.....+++.....++              ",
" ++......+......++              ",
" ++.....+++.....++              ",
" ++....+++++....++              ",
"  +...+++++++...+               ",
"  ++.+++++++++.++               ",
"   +++++++++++++                ",
"    +++++++++++                 ",
"     +++++++++                  ",
"       +++++                    ",
"                                ",
"                                ",
"                                "};
