/* XPM */
static char *bottom_left_corner[] = {
/* columns rows colors chars-per-pixel */
"32 32 3 1 ",
"  c None",
". c white",
"o c black",
/* pixels */
"                                ",
"                                ",
"                                ",
"                                ",
"                                ",
"                                ",
"                                ",
"                                ",
"                                ",
"                ooooooo         ",
"                o.....o         ",
"                oo....o         ",
"                 o....o         ",
"                o.....o         ",
"               o...oo.o         ",
"              o...o ooo         ",
"oooo     ooo o...o              ",
"o..o     o.oo...o               ",
"o..o     o.....o                ",
"o..o     o....o                 ",
"o..o     o....oo                ",
"o..o     o.....o                ",
"o..o     ooooooo                ",
"o..o                            ",
"o..o                            ",
"o..o                            ",
"o..o                            ",
"o..o                            ",
"o..ooooooooooooo                ",
"o..............o                ",
"o..............o                ",
"oooooooooooooooo                "
};
