/* XPM */
static char *pencil[] = {
/* columns rows colors chars-per-pixel */
"32 32 3 1 ",
"  c None",
". c white",
"o c black",
/* pixels */
"                                ",
"                                ",
"                                ",
"                                ",
"                                ",
"                                ",
"                                ",
"                                ",
"                                ",
"                                ",
"                                ",
"                                ",
"                                ",
"                                ",
"       oo                       ",
"      o..o                      ",
"      o..o                      ",
"     o...o                      ",
"     o..o                       ",
"    o...o                       ",
"    o..o                        ",
"   o...o                        ",
"   o..o                         ",
"  o...o                         ",
"  o..o                          ",
" o...o                          ",
" o..o                           ",
" o..o                           ",
"o..o                            ",
"o.o                             ",
"oo                              ",
"o                               "
};
