/* XPM */
static char * progress2_xpm[] = {
"24 24 3 1",
"  c None",
". c white",
"+ c black",
".                       ",
"..                      ",
".+.                     ",
".++.                    ",
".+++.                   ",
".++++.                  ",
".+++++.                 ",
".++++++.                ",
".+++++++.               ",
".+++......              ",
".++.                    ",
".+.                     ",
"..    +++++             ",
".    +++++++            ",
"    +++++++++           ",
"   +..+++++..+          ",
"   +...+++...+          ",
"   +....+....+          ",
"   +...+++...+          ",
"   +..+++++..+          ",
"    +++++++++           ",
"     +++++++            ",
"      +++++             ",
"                        "};
