/* XPM */
static char * 24_top_right_corner_xpm[] = {
"24 24 3 1",
" 	c None",
".	c #FFFFFF",
"+	c #000000",
"       ................ ",
"       .++++++++++++++. ",
"       .++++++++++++++. ",
"       .............++. ",
"                   .++. ",
"                   .++. ",
"                   .++. ",
"                   .++. ",
"                   .++. ",
"       .......     .++. ",
"       .+++++.     .++. ",
"       ..++++.     .++. ",
"        .++++.     .++. ",
"       .+++++.     .++. ",
"      .+++..+.     .++. ",
"     .+++. ...     .... ",
"... .+++.               ",
".+..+++.                ",
".+++++.                 ",
".++++.                  ",
".++++..                 ",
".+++++.                 ",
".......                 ",
"                        "};
