/* XPM */
static char * 24_up_arrow_xpm[] = {
"24 24 3 1",
" 	c None",
".	c #FFFFFF",
"+	c #000000",
"    ..                  ",
"   .++.                 ",
"  .++++.                ",
" .++++++.               ",
"....++....              ",
"   .++.                 ",
"   .++.                 ",
"   .++.                 ",
"   .++.                 ",
"   .++.                 ",
"   .++.                 ",
"   .++.                 ",
"   .++.                 ",
"   .++.                 ",
"   .++.                 ",
"   ....                 ",
"                        ",
"                        ",
"                        ",
"                        ",
"                        ",
"                        ",
"                        ",
"                        "};
