/* XPM */
static char * 24_x_cursor_xpm[] = {
"24 24 3 1",
" 	c None",
".	c #FFFFFF",
"+	c #000000",
"....        ....        ",
".+++.      .+++.        ",
".++++.    .++++.        ",
".+++++.  .+++++.        ",
" .+++++..+++++.         ",
"  .++++++++++.          ",
"   .++++++++.           ",
"    .++++++.            ",
"    .++++++.            ",
"   .++++++++.           ",
"  .++++++++++.          ",
" .+++++..+++++.         ",
".+++++.  .+++++.        ",
".++++.    .++++.        ",
".+++.      .+++.        ",
"....        ....        ",
"                        ",
"                        ",
"                        ",
"                        ",
"                        ",
"                        ",
"                        ",
"                        "};
