/* XPM */
static char *_2_col_resize[] = {
/* columns rows colors chars-per-pixel */
"32 32 3 1 ",
"  c None",
". c black",
"X c white",
/* pixels */
"      XXXX                      ",
"      X..X                      ",
"      X..X                      ",
"    X X..X X                    ",
"   XX X..X XX                   ",
"  X.X X..X X.X                  ",
" X..XXX..XXX..X                 ",
"X..............X                ",
"X..............X                ",
" X..XXX..XXX..X                 ",
"  X.X X..X X.X                  ",
"   XX X..X XX                   ",
"    X X..X X                    ",
"      X..X                      ",
"      X..X                      ",
"      XXXX                      ",
"                                ",
"                                ",
"                                ",
"                                ",
"                                ",
"                                ",
"                                ",
"                                ",
"                                ",
"                                ",
"                                ",
"                                ",
"                                ",
"                                ",
"                                ",
"                                "
};
