/* XPM */
static char *_2_help[] = {
/* columns rows colors chars-per-pixel */
"32 32 3 1 ",
"  c None",
". c black",
"X c white",
/* pixels */
"X                               ",
"XX           XXXX               ",
"X.X         X....X              ",
"X..X       X......X             ",
"X...X     X...XX...X            ",
"X....X    X..X  X..X            ",
"X.....X    XX  X...X            ",
"X......X      X...X             ",
"X.......X    X...X              ",
"X........X   X..X               ",
"X.....XXXXX  X..X               ",
"X..X..X       XX                ",
"X.X X..X     X..X               ",
"XX  X..X     X..X               ",
"X    X..X     XX                ",
"     X..X                       ",
"      XXX                       ",
"                                ",
"                                ",
"                                ",
"                                ",
"                                ",
"                                ",
"                                ",
"                                ",
"                                ",
"                                ",
"                                ",
"                                ",
"                                ",
"                                ",
"                                "
};
