/* XPM */
static char *_2_left_side[] = {
/* columns rows colors chars-per-pixel */
"32 32 3 1 ",
"  c None",
". c black",
"X c white",
/* pixels */
"XXXX                            ",
"X..X                            ",
"X..X                            ",
"X..X                            ",
"X..X       XX      XX           ",
"X..X      X.X      X.X          ",
"X..X     X..XXXXXXXX..X         ",
"X..X    X..............X        ",
"X..X    X..............X        ",
"X..X     X..XXXXXXXX..X         ",
"X..X      X.X      X.X          ",
"X..X       XX      XX           ",
"X..X                            ",
"X..X                            ",
"X..X                            ",
"XXXX                            ",
"                                ",
"                                ",
"                                ",
"                                ",
"                                ",
"                                ",
"                                ",
"                                ",
"                                ",
"                                ",
"                                ",
"                                ",
"                                ",
"                                ",
"                                ",
"                                "
};
