/* XPM */
static char *_2_no_drop[] = {
/* columns rows colors chars-per-pixel */
"32 32 3 1 ",
"  c None",
". c black",
"X c white",
/* pixels */
"X                               ",
"XX                              ",
"X.X                             ",
"X..X                            ",
"X...X                           ",
"X....X                          ",
"X.....X                         ",
"X......X                        ",
"X.......X                       ",
"X........X                      ",
"X.....XXXXX                     ",
"X..X..X                         ",
"X.X X..X       .....            ",
"XX  X..X      .XXXXX.           ",
"X    X..X    ..XXXXXX.          ",
"     X..X   .XX.XXXXXX.         ",
"      XX    .XXX.XXXXX.         ",
"            .XXXX.XXXX.         ",
"            .XXXXX.XXX.         ",
"            .XXXXXX.XX.         ",
"             .XXXXXX..          ",
"              .XXXXX.           ",
"               .....            ",
"                                ",
"                                ",
"                                ",
"                                ",
"                                ",
"                                ",
"                                ",
"                                ",
"                                "
};
