/* XPM */
static char *_2_progress4[] = {
/* columns rows colors chars-per-pixel */
"32 32 3 1 ",
"  c None",
". c black",
"X c white",
/* pixels */
"X                               ",
"XX                              ",
"X.X                             ",
"X..X                            ",
"X...X                           ",
"X....X                          ",
"X.....X                         ",
"X......X                        ",
"X.......X                       ",
"X...XXXXXX                      ",
"X..X                            ",
"X.X                             ",
"XX    .....                     ",
"X    .XXXXX.                    ",
"    ..XXXXX..                   ",
"   ....XXX....                  ",
"   .....X.....                  ",
"   ...........                  ",
"   .....X.....                  ",
"   ....XXX....                  ",
"    ..XXXXX..                   ",
"     .XXXXX.                    ",
"      .....                     ",
"                                ",
"                                ",
"                                ",
"                                ",
"                                ",
"                                ",
"                                ",
"                                ",
"                                "
};
