/* XPM */
static char *_2_row_resize[] = {
/* columns rows colors chars-per-pixel */
"32 32 3 1 ",
"  c None",
". c black",
"X c white",
/* pixels */
"       XX                       ",
"      X..X                      ",
"     X....X                     ",
"    X......X                    ",
"   XXXX..XXXX                   ",
"      X..X                      ",
"XXXXXXX..XXXXXXX                ",
"X..............X                ",
"X..............X                ",
"XXXXXXX..XXXXXXX                ",
"      X..X                      ",
"   XXXX..XXXX                   ",
"    X......X                    ",
"     X....X                     ",
"      X..X                      ",
"       XX                       ",
"                                ",
"                                ",
"                                ",
"                                ",
"                                ",
"                                ",
"                                ",
"                                ",
"                                ",
"                                ",
"                                ",
"                                ",
"                                ",
"                                ",
"                                ",
"                                "
};
