/* XPM */
static char *_2_up_arrow[] = {
/* columns rows colors chars-per-pixel */
"32 32 3 1 ",
"  c None",
". c black",
"X c white",
/* pixels */
"    XX                          ",
"   X..X                         ",
"  X....X                        ",
" X......X                       ",
"XXXX..XXXX                      ",
"   X..X                         ",
"   X..X                         ",
"   X..X                         ",
"   X..X                         ",
"   X..X                         ",
"   X..X                         ",
"   X..X                         ",
"   X..X                         ",
"   X..X                         ",
"   X..X                         ",
"   XXXX                         ",
"                                ",
"                                ",
"                                ",
"                                ",
"                                ",
"                                ",
"                                ",
"                                ",
"                                ",
"                                ",
"                                ",
"                                ",
"                                ",
"                                ",
"                                ",
"                                "
};
