/* XPM */
static char * 42_context_menu_xpm[] = {
"42 42 3 1",
" 	c None",
".	c white",
"+	c black",
".                                         ",
"..                                        ",
".+.                                       ",
".++.                                      ",
".+++.                                     ",
".++++.                                    ",
".+++++.                                   ",
".++++++.                                  ",
".+++++++.                                 ",
".++++++++..........                       ",
".+++++++++.+++++++.                       ",
".+++++++++++++++++.                       ",
".++++++....+.....+.                       ",
".+++.++.  .+++++++.                       ",
".++. .++. .+.....+.                       ",
".+.  .++. .+++++++.                       ",
"..    .++..+.....+.                       ",
".     .++..+++++++.                       ",
"       .. .........                       ",
"                                          ",
"                                          ",
"                                          ",
"                                          ",
"                                          ",
"                                          ",
"                                          ",
"                                          ",
"                                          ",
"                                          ",
"                                          ",
"                                          ",
"                                          ",
"                                          ",
"                                          ",
"                                          ",
"                                          ",
"                                          ",
"                                          ",
"                                          ",
"                                          ",
"                                          ",
"                                          "};
