/* XPM */
static char * 42_size_hor_xpm[] = {
"42 42 3 1",
" 	c None",
".	c white",
"+	c black",
"   ..         ..                          ",
"  .+.         .+.                         ",
" .++...........++.                        ",
".+++++++++++++++++.                       ",
".+++++++++++++++++.                       ",
" .++...........++.                        ",
"  .+.         .+.                         ",
"   ..         ..                          ",
"                                          ",
"                                          ",
"                                          ",
"                                          ",
"                                          ",
"                                          ",
"                                          ",
"                                          ",
"                                          ",
"                                          ",
"                                          ",
"                                          ",
"                                          ",
"                                          ",
"                                          ",
"                                          ",
"                                          ",
"                                          ",
"                                          ",
"                                          ",
"                                          ",
"                                          ",
"                                          ",
"                                          ",
"                                          ",
"                                          ",
"                                          ",
"                                          ",
"                                          ",
"                                          ",
"                                          ",
"                                          ",
"                                          ",
"                                          "};
