/* XPM */
static char *all_scroll[] = {
/* columns rows colors chars-per-pixel */
"32 32 3 1 ",
"  c None",
". c black",
"o c white",
/* pixels */
"                                ",
"                                ",
"                                ",
"                                ",
"                                ",
"                                ",
"                                ",
"                                ",
"               oo               ",
"              o..o              ",
"             o....o             ",
"            o......o            ",
"           oooo..oooo           ",
"          o.o o..o o.o          ",
"         o..ooo..ooo..o         ",
"        o..............o        ",
"        o..............o        ",
"         o..ooo..ooo..o         ",
"          o.o o..o o.o          ",
"           oooo..oooo           ",
"            o......o            ",
"             o....o             ",
"              o..o              ",
"               oo               ",
"                                ",
"                                ",
"                                ",
"                                ",
"                                ",
"                                ",
"                                ",
"                                "
};
