/* XPM */
static char *size_fdiag[] = {
/* columns rows colors chars-per-pixel */
"32 32 3 1 ",
"  c None",
". c black",
"o c white",
/* pixels */
"                                ",
"                                ",
"                                ",
"                                ",
"                                ",
"                                ",
"                                ",
"                                ",
"                                ",
"         ooooooo                ",
"         o.....o                ",
"         o....oo                ",
"         o....o                 ",
"         o.....o                ",
"         o.oo...o               ",
"         ooo o...o              ",
"              o...o ooo         ",
"               o...oo.o         ",
"                o.....o         ",
"                 o....o         ",
"                oo....o         ",
"                o.....o         ",
"                ooooooo         ",
"                                ",
"                                ",
"                                ",
"                                ",
"                                ",
"                                ",
"                                ",
"                                ",
"                                "
};
