/* XPM */
static char *_2_text[] = {
/* columns rows colors chars-per-pixel */
"32 32 3 1 ",
"  c None",
". c black",
"X c white",
/* pixels */
" XX   XX                        ",
"X..X X..X                       ",
" XX.X.XX                        ",
"   X.X                          ",
"   X.X                          ",
"   X.X                          ",
"   X.X                          ",
"   X.X                          ",
"   X.X                          ",
"  X...X                         ",
"   X.X                          ",
"   X.X                          ",
"   X.X                          ",
"   X.X                          ",
"   X.X                          ",
" XX.X.XX                        ",
"X..X X..X                       ",
" XX   XX                        ",
"                                ",
"                                ",
"                                ",
"                                ",
"                                ",
"                                ",
"                                ",
"                                ",
"                                ",
"                                ",
"                                ",
"                                ",
"                                ",
"                                "
};
