/* XPM */
static char *_2_wait14[] = {
/* columns rows colors chars-per-pixel */
"32 32 3 1 ",
"  c None",
". c black",
"X c white",
/* pixels */
".............                   ",
"..XXXXXXXXX..                   ",
".............                   ",
" .XXXXXXXXX.                    ",
" .XXXXXXXXX.                    ",
" .XXXXXXXXX.                    ",
" .XXXXX.XXX.                    ",
" ..XXX.XXX..                    ",
"  ..XXXXX..                     ",
"   ..X.X..                      ",
"    ..X..                       ",
"    ..X..                       ",
"   ..XXX..                      ",
"  ..XX.XX..                     ",
" ..XXXXXXX..                    ",
" .XXXXXXXXX.                    ",
" .XXXXX.XXX.                    ",
" .XX.X.X.XX.                    ",
" .X.X.X.X.X.                    ",
".............                   ",
"..XXXXXXXXX..                   ",
".............                   ",
"                                ",
"                                ",
"                                ",
"                                ",
"                                ",
"                                ",
"                                ",
"                                ",
"                                ",
"                                "
};
