/* XPM */
static char *_2_wait19[] = {
/* columns rows colors chars-per-pixel */
"32 32 3 1 ",
"  c None",
". c black",
"X c white",
/* pixels */
".............                   ",
"..XXXXXXXXX..                   ",
".............                   ",
" .XXXXXXXXX.                    ",
" .XXXXXXXXX.                    ",
" .XXXXXXXXX.                    ",
" .XXXXXXXXX.                    ",
" ..XXXXXXX..                    ",
"  ..XXXXX..                     ",
"   ..XXX..                      ",
"    ..X..                       ",
"    ..X..                       ",
"   ..X.X..                      ",
"  ..XXXXX..                     ",
" ..XXXXXXX..                    ",
" .XXXX.X.XX.                    ",
" .X.X.X.X.X.                    ",
" .XX.X.X.XX.                    ",
" .X.X.X.X.X.                    ",
".............                   ",
"..XXXXXXXXX..                   ",
".............                   ",
"                                ",
"                                ",
"                                ",
"                                ",
"                                ",
"                                ",
"                                ",
"                                ",
"                                ",
"                                "
};
