/* XPM */
static char *_2_wait05[] = {
/* columns rows colors chars-per-pixel */
"32 32 3 1 ",
"  c None",
". c black",
"X c white",
/* pixels */
".............                   ",
"..XXXXXXXXX..                   ",
".............                   ",
" .X.X.X.X.X.                    ",
" .XX.X.X.XX.                    ",
" .X.X.X.X.X.                    ",
" .XX.X.X.XX.                    ",
" ..XX.X.XX..                    ",
"  ..XX.XX..                     ",
"   ..XXX..                      ",
"    ..X..                       ",
"    ..X..                       ",
"   ..XXX..                      ",
"  ..XXXXX..                     ",
" ..XXXXXXX..                    ",
" .XXXXXXXXX.                    ",
" .XXXXXXXXX.                    ",
" .XXXXXXXXX.                    ",
" .XXXXXXXXX.                    ",
".............                   ",
"..XXXXXXXXX..                   ",
".............                   ",
"                                ",
"                                ",
"                                ",
"                                ",
"                                ",
"                                ",
"                                ",
"                                ",
"                                ",
"                                "
};
