/* XPM */
static char *_2_wait03[] = {
/* columns rows colors chars-per-pixel */
"32 32 3 1 ",
"  c None",
". c black",
"X c white",
/* pixels */
"...                ...          ",
"........      ........          ",
".X.XXXX..    ..XXXX.X.          ",
".X.XXXXX..  ..XXXX..X.          ",
".X.XXXXXX....XXXX.X.X.          ",
".X.XXXXXXX..XXXX.X..X.          ",
".X.XXXXXXXXXX.X.X.X.X.          ",
".X.XXXXXXX..XX.X.X..X.          ",
".X.XXXXXX....XX.X.X.X.          ",
".X.XXXXX..  ..XX.X..X.          ",
".X.XXXX..    ..XXXX.X.          ",
"........      ........          ",
"...                ...          ",
"                                ",
"                                ",
"                                ",
"                                ",
"                                ",
"                                ",
"                                ",
"                                ",
"                                ",
"                                ",
"                                ",
"                                ",
"                                ",
"                                ",
"                                ",
"                                ",
"                                ",
"                                ",
"                                "
};
