/* XPM */
static char *_2_wait08[] = {
/* columns rows colors chars-per-pixel */
"32 32 3 1 ",
"  c None",
". c black",
"X c white",
/* pixels */
".............                   ",
"..XXXXXXXXX..                   ",
".............                   ",
" .XXXXXXXXX.                    ",
" .XXXXX.X.X.                    ",
" .XX.X.X.XX.                    ",
" .XXX.X.XXX.                    ",
" ..XXX.XXX..                    ",
"  ..XXXXX..                     ",
"   ..X.X..                      ",
"    ..X..                       ",
"    ..X..                       ",
"   ..XXX..                      ",
"  ..XX.XX..                     ",
" ..XXXXXXX..                    ",
" .XXXXXXXXX.                    ",
" .XXXXXXXXX.                    ",
" .XXXXXXXXX.                    ",
" .XXX.X.XXX.                    ",
".............                   ",
"..XXXXXXXXX..                   ",
".............                   ",
"                                ",
"                                ",
"                                ",
"                                ",
"                                ",
"                                ",
"                                ",
"                                ",
"                                ",
"                                "
};
