/* XPM */
static char *draft[] = {
/* columns rows colors chars-per-pixel */
"32 32 3 1 ",
"  c None",
". c black",
"o c white",
/* pixels */
"                                ",
"                                ",
"                                ",
"                                ",
"                                ",
"                                ",
"                                ",
"                                ",
"                                ",
"                                ",
"                                ",
"                                ",
"                                ",
"                                ",
"          oo                    ",
"         o..o                   ",
"         o...o                  ",
"       oo.....o                 ",
"     oo........o                ",
"    o...........o               ",
"   o.............o              ",
"  o..............o              ",
"  o............oo               ",
"  o....oo.....o                 ",
"  o....oo.....o                 ",
"  o...o......o                  ",
" o...o.......o                  ",
" o..o.......o                   ",
"o..o.......o                    ",
"o.o...ooooo                     ",
".o..oo                          ",
"o.oo                            "
};
