/* XPM */
static char *_2_no_drop[] = {
/* columns rows colors chars-per-pixel */
"32 32 4 1 ",
"  c None",
". c black",
"X c red",
"o c white",
/* pixels */
"o                               ",
"oo                              ",
"o.o                             ",
"o..o                            ",
"o...o                           ",
"o....o                          ",
"o.....o                         ",
"o......o                        ",
"o.......o                       ",
"o........o                      ",
"o.....ooooo                     ",
"o..o..o        .....            ",
"o.o o..o      .XXXXX.           ",
"oo  o..o     .X.....X.          ",
"o    o..o   .XX.oooo.X.         ",
"     o..o  .X..X.oooo.X.        ",
"      oo   .X.o.X.ooo.X.        ",
"           .X.oo.X.oo.X.        ",
"           .X.ooo.X.o.X.        ",
"           .X.oooo.X..X.        ",
"            .X.oooo.XX.         ",
"             .X.....X.          ",
"              .XXXXX.           ",
"               .....            ",
"                                ",
"                                ",
"                                ",
"                                ",
"                                ",
"                                ",
"                                ",
"                                "
};
