/* XPM */
static char *dummy[]={
"42 42 4 1",
"# c None",
"a c #000000",
"b c #00ff00",
". c #ffffff",
".#########################################",
"..########################################",
".a.#######################################",
".aa.###########aaaa#######################",
".aaa.#########abbbba######################",
".aaaa.#######abbbbbba#####################",
".aaaaa.#####abbbaabbba####################",
".aaaaaa.####abba##abba####################",
".aaaaaaa.####aa##abbba####################",
".aaaaaaaa.######abbba#####################",
".aaaaaaaaa.####abbba######################",
".aaaaaaaaaa.###abba#######################",
".aaaaaa......##abba#######################",
".aaa.aa.########aa########################",
".aa.#.aa.######abba#######################",
".a.##.aa.######abba#######################",
"..####.aa.######aa########################",
".#####.aa.################################",
"#######..#################################",
"##########################################",
"##########################################",
"##########################################",
"##########################################",
"##########################################",
"##########################################",
"##########################################",
"##########################################",
"##########################################",
"##########################################",
"##########################################",
"##########################################",
"##########################################",
"##########################################",
"##########################################",
"##########################################",
"##########################################",
"##########################################",
"##########################################",
"##########################################",
"##########################################",
"##########################################",
"##########################################"};
