/* XPM */
static char *dummy[]={
"42 42 4 1",
"# c None",
"a c #000000",
"b c #ff0000",
". c #ffffff",
".#########################################",
"..########################################",
".a.#######################################",
".aa.######################################",
".aaa.#####################################",
".aaaa.####################################",
".aaaaa.###################################",
".aaaaaa.##################################",
".aaaaaaa.#################################",
".aaaaaaaa.################################",
".aaaaaaaaa.###############################",
".aaaaaaaaaa.##############################",
".aaaaaa......#############################",
".aaa.aa.##################################",
".aa.#.aa.########aaaaa####################",
".a.##.aa.#######abbbbba###################",
"..####.aa.#####abaaaaaba##################",
".#####.aa.####abba....aba#################",
"#######..####abaaba....aba################",
"#############aba.aba...aba################",
"#############aba..aba..aba################",
"#############aba...aba.aba################",
"#############aba....abaaba################",
"##############aba....abba#################",
"###############abaaaaaba##################",
"################abbbbba###################",
"#################aaaaa####################",
"##########################################",
"##########################################",
"##########################################",
"##########################################",
"##########################################",
"##########################################",
"##########################################",
"##########################################",
"##########################################",
"##########################################",
"##########################################",
"##########################################",
"##########################################",
"##########################################",
"##########################################"};
