/* XPM */
static char * draft_xpm[] = {
"24 24 3 1",
" 	c None",
".	c black",
"+	c white",
"                        ",
"                        ",
"                        ",
"                        ",
"                        ",
"                        ",
"          ..            ",
"         .++.           ",
"         .+++.          ",
"       ..+++++.         ",
"     ..++++++++.        ",
"    .+++++++++++.       ",
"   .+++++++++++++.      ",
"  .++++++++++++++.      ",
"  .++++++++++++..       ",
"  .++++..+++++.         ",
"  .++++..+++++.         ",
"  .+++.++++++.          ",
" .+++.+++++++.          ",
" .++.+++++++.           ",
".++.+++++++.            ",
".+.+++.....             ",
"+.++..                  ",
".+..                    "};
