/* XPM */
static char * help_xpm[] = {
"24 24 3 1",
" 	c None",
".	c black",
"+	c white",
".                       ",
"..           ....       ",
".+.         .++++.      ",
".++.       .++++++.     ",
".+++.     .+++..+++.    ",
".++++.    .++.  .++.    ",
".+++++.    ..  .+++.    ",
".++++++.      .+++.     ",
".+++++++.    .+++.      ",
".++++++++.   .++.       ",
".+++++.....  .++.       ",
".++.++.       ..        ",
".+. .++.     .++.       ",
"..  .++.     .++.       ",
".    .++.     ..        ",
"     .++.               ",
"      ...               ",
"                        ",
"                        ",
"                        ",
"                        ",
"                        ",
"                        ",
"                        "};
