/* XPM */
static char * top_right_corner_xpm[] = {
"24 24 3 1",
" 	c None",
".	c black",
"+	c white",
"        ................",
"        .++++++++++++++.",
"        .++++++++++++++.",
"        .............++.",
"                    .++.",
"                    .++.",
"                    .++.",
"                    .++.",
"                    .++.",
"        .......     .++.",
"        .+++++.     .++.",
"        ..++++.     .++.",
"         .++++.     .++.",
"        .+++++.     .++.",
"       .+++..+.     .++.",
"      .+++. ...     ....",
" ... .+++.              ",
" .+..+++.               ",
" .+++++.                ",
" .++++.                 ",
" .++++..                ",
" .+++++.                ",
" .......                ",
"                        "};
