/* XPM */
static char *_2_dnd_no_drop[] = {
/* columns rows colors chars-per-pixel */
"32 32 4 1 ",
"  c None",
". c black",
"X c red",
"o c white",
/* pixels */
"    .. .. ..                    ",
"   .oo.oo.oo...                 ",
" ...oo.ooooo.o.                 ",
".oo.oooooooooo.                 ",
".ooo.ooooooooo.                 ",
" .ooooo.o.o.oo.                 ",
"  .oooo.o.o.oo.                 ",
"  .oooo.o.o.oo.                 ",
"   .ooo.o.o.o.                  ",
"    .ooooooo.                   ",
"     .ooo..o.                   ",
"     ....  ..  .....            ",
"              .XXXXX.           ",
"             .X.....X.          ",
"            .XX.oooo.X.         ",
"           .X..X.oooo.X.        ",
"           .X.o.X.ooo.X.        ",
"           .X.oo.X.oo.X.        ",
"           .X.ooo.X.o.X.        ",
"           .X.oooo.X..X.        ",
"            .X.oooo.XX.         ",
"             .X.....X.          ",
"              .XXXXX.           ",
"               .....            ",
"                                ",
"                                ",
"                                ",
"                                ",
"                                ",
"                                ",
"                                ",
"                                "
};
