/* XPM */
static char *_2_not_allowed[] = {
/* columns rows colors chars-per-pixel */
"32 32 4 1 ",
"  c None",
". c black",
"X c red",
"o c white",
/* pixels */
"       .....                    ",
"     ..XXXXX..                  ",
"    .XXXXXXXXX.                 ",
"   .XXX.....XXX.                ",
"  .XXX.ooooo.XXX.               ",
" .XXXXX.ooooo.XXX.              ",
" .XX.XXX.ooooo.XX.              ",
".XXX..XXX.oooo.XXX.             ",
".XX.oo.XXX.oooo.XX.             ",
".XX.ooo.XXX.ooo.XX.             ",
".XX.oooo.XXX.oo.XX.             ",
".XXX.oooo.XXX..XXX.             ",
" .XX.ooooo.XXX.XX.              ",
" .XXX.ooooo.XXXXX.              ",
"  .XXX.ooooo.XXX.               ",
"   .XXX.....XXX.                ",
"    .XXXXXXXXX.                 ",
"     ..XXXXX..                  ",
"       .....                    ",
"                                ",
"                                ",
"                                ",
"                                ",
"                                ",
"                                ",
"                                ",
"                                ",
"                                ",
"                                ",
"                                ",
"                                ",
"                                "
};
