/* XPM */
static char *_2_pencil[] = {
/* columns rows colors chars-per-pixel */
"32 32 6 1 ",
"  c None",
". c black",
"X c red",
"o c green",
"O c yellow",
"+ c white",
/* pixels */
"               +++              ",
"              +...+             ",
"             +.XX..+            ",
"            +.XXXX.+            ",
"           +...XXX.+            ",
"          +..O..X.+             ",
"         +..OOO..+              ",
"        +..OOO..+               ",
"       +..OOO..+                ",
"      +..OOO..+                 ",
"     +..OOO..+                  ",
"    +..OOO..+                   ",
"   +..OOO..+                    ",
"  +..OOO..+                     ",
" +..OOO..+                      ",
" +.o.O..+                       ",
"+..oo..+                        ",
"+.o...+                         ",
"+...++                          ",
"++++                            ",
"                                ",
"                                ",
"                                ",
"                                ",
"                                ",
"                                ",
"                                ",
"                                ",
"                                ",
"                                ",
"                                ",
"                                "
};
