/* XPM */
static char *dummy[]={
"36 36 4 1",
"# c None",
"b c #0000ff",
"a c cyan",
". c coral",
".###################################",
"..##################################",
".a.#################################",
".aa.################################",
".aaa.###############################",
".aaaa.##############################",
".aaaaa.#############################",
".aaaaaa.############################",
".aaaaaaa.###########################",
".aaaaaaaa.##########################",
".aaaaaaaaa.............#############",
".aaaaaaaaaa.aaaaaaaaaa.#############",
".aaaaaaaaaaaaaaaaaaaaa.#############",
".aaaaaaa....aabbbbbbaa.#############",
".aaaaaaa.##.aaaaaaaaaa.#############",
".aaa.aaa.##.aaaaaaaaaa.#############",
".aa.#.aaa.#.aa......aa.#############",
".a.##.aaa.#.aaaaaaaaaa.#############",
"..####.aaa..aaaaaaaaaa.#############",
".#####.aaa..aa......aa.#############",
"#######.aaa.aaaaaaaaaa.#############",
"#######.aaa.aaaaaaaaaa.#############",
"########...............#############",
"####################################",
"####################################",
"####################################",
"####################################",
"####################################",
"####################################",
"####################################",
"####################################",
"####################################",
"####################################",
"####################################",
"####################################",
"####################################"};
