/* XPM */
static char *dummy[]={
"36 36 5 1",
"# c None",
"a c black",
"b c green",
"c c cyan",
". c coral",
".################aaaaa##############",
"..##############abbbbba#############",
".c.############abbbbbbba############",
".cc.##########abbbbbbbbba###########",
".ccc.########abbbbaaabbbba##########",
".cccc.#######abbba###abbba##########",
".ccccc.######abbba###abbba##########",
".cccccc.######aaa###abbbba##########",
".ccccccc.##########abbbba###########",
".cccccccc.########abbbba############",
".ccccccccc.######abbbba#############",
".cccccccccc.#####abbba##############",
".ccccccccccc.####abbba##############",
".ccccccc......###abbba##############",
".ccccccc.#########aaa###############",
".ccc.ccc.########abbba##############",
".cc.#.ccc.#######abbba##############",
".c.##.ccc.#######abbba##############",
"..####.ccc.#######aaa###############",
".#####.ccc.#########################",
"#######.ccc.########################",
"#######.ccc.########################",
"########...#########################",
"####################################",
"####################################",
"####################################",
"####################################",
"####################################",
"####################################",
"####################################",
"####################################",
"####################################",
"####################################",
"####################################",
"####################################",
"####################################"};
