/* XPM */
static char *dummy[]={
"36 36 6 1",
"# c None",
"b c black",
"a c cyan",
"c c #ff0000",
". c coral",
"d c white",
".###################################",
"..##################################",
".a.#################################",
".aa.################################",
".aaa.###############################",
".aaaa.##############################",
".aaaaa.#############################",
".aaaaaa.############################",
".aaaaaaa.###########################",
".aaaaaaaa.##########################",
".aaaaaaaaa.#########################",
".aaaaaaaaaa.########################",
".aaaaaaaaaaa.#######################",
".aaaaaaa......######################",
".aaaaaaa.##############bbbbb########",
".aaa.aaa.############bbcccccbb######",
".aa.#.aaa.##########bcccccccccb#####",
".a.##.aaa.#########bcccbbbbbcccb####",
"..####.aaa.#######bcccbdddddbcccb###",
".#####.aaa.######bcccccbdddddbcccb##",
"#######.aaa.#####bccbcccbdddddbccb##",
"#######.aaa.####bcccbbcccbddddbcccb#",
"########...#####bccbddbcccbddddbccb#",
"################bccbdddbcccbdddbccb#",
"################bccbddddbcccbddbccb#",
"################bcccbddddbcccbbcccb#",
"#################bccbdddddbcccbccb##",
"#################bcccbdddddbcccccb##",
"##################bcccbdddddbcccb###",
"###################bcccbbbbbcccb####",
"####################bcccccccccb#####",
"#####################bbcccccbb######",
"#######################bbbbb########",
"####################################",
"####################################",
"####################################"};
