/* XPM */
static char *dummy[]={
"32 32 3 1",
"# c None",
"a c cyan",
". c coral",
".......#########################",
".aaaaa.#########################",
".aaaa..#########################",
".aaaa.##########################",
".aaaaa.#########################",
".a..aaa.########################",
"...#.aaa.#######################",
"#####.aaa.#...#####....#########",
"######.aaa..a.#####.aa.#########",
"#######.aaaaa.#####.aa.#########",
"########.aaaa.#####.aa.#########",
"#######..aaaa.#####.aa.#########",
"#######.aaaaa.#####.aa.#########",
"#######.......#####.aa.#########",
"###################.aa.#########",
"###################.aa.#########",
"###################.aa.#########",
"###################.aa.#########",
"###################.aa.#########",
"#######.............aa.#########",
"#######.aaaaaaaaaaaaaa.#########",
"#######.aaaaaaaaaaaaaa.#########",
"#######................#########",
"################################",
"################################",
"################################",
"################################",
"################################",
"################################",
"################################",
"################################",
"################################"};
