/* XPM */
static char *_2_context_menu[] = {
/* columns rows colors chars-per-pixel */
"32 32 3 1 ",
"  c None",
". c coral",
"X c cyan",
/* pixels */
".                               ",
"..                              ",
".X.                             ",
".XX.                            ",
".XXX.                           ",
".XXXX.                          ",
".XXXXX.                         ",
".XXXXXX..........               ",
".XXXXXXX.XXXXXXX.               ",
".XXXXXXXXXXXXXXX.               ",
".XXXXX...X.....X.               ",
".XX.XX. .XXXXXXX.               ",
".X. .XX..X.....X.               ",
"..  .XX..XXXXXXX.               ",
".    .XX.X.....X.               ",
"     .XX.XXXXXXX.               ",
"      ...........               ",
"                                ",
"                                ",
"                                ",
"                                ",
"                                ",
"                                ",
"                                ",
"                                ",
"                                ",
"                                ",
"                                ",
"                                ",
"                                ",
"                                ",
"                                "
};
