/* XPM */
static char *_2_copy[] = {
/* columns rows colors chars-per-pixel */
"32 32 3 1 ",
"  c None",
". c black",
"X c white",
/* pixels */
"    .. .. ..                    ",
"   .XX.XX.XX...                 ",
" ...XX.XXXXX.X.                 ",
".XX.XXXXXXXXXX.                 ",
".XXX.XXXXXXXXX.                 ",
" .XXXXX.X.X.XX.                 ",
"  .XXXX.X.X.XX.                 ",
"  .XXXX.X.X.XX.                 ",
"   .XXX.X.X.X.                  ",
"    .XXXXXXX..X.X.              ",
"     .XXX..X.X.X.X              ",
"     ....  ..   X.              ",
"     X.         .X              ",
"     .X      ...........        ",
"     X.      .XXXXXXXXX.        ",
"     .X      .XXXXXXXXX.        ",
"     X.X.X.X..XXXX.XXXX.        ",
"     .X.X.X.X.XXXX.XXXX.        ",
"             .XX.....XX.        ",
"             .XXXX.XXXX.        ",
"             .XXXX.XXXX.        ",
"             .XXXXXXXXX.        ",
"             .XXXXXXXXX.        ",
"             ...........        ",
"                                ",
"                                ",
"                                ",
"                                ",
"                                ",
"                                ",
"                                ",
"                                "
};
