/* XPM */
static char *_2_down_arrow[] = {
/* columns rows colors chars-per-pixel */
"32 32 3 1 ",
"  c None",
". c coral",
"X c cyan",
/* pixels */
"   ....                         ",
"   .XX.                         ",
"   .XX.                         ",
"   .XX.                         ",
"   .XX.                         ",
"   .XX.                         ",
"   .XX.                         ",
"   .XX.                         ",
"   .XX.                         ",
"   .XX.                         ",
"   .XX.                         ",
"....XX....                      ",
" .XXXXXX.                       ",
"  .XXXX.                        ",
"   .XX.                         ",
"    ..                          ",
"                                ",
"                                ",
"                                ",
"                                ",
"                                ",
"                                ",
"                                ",
"                                ",
"                                ",
"                                ",
"                                ",
"                                ",
"                                ",
"                                ",
"                                ",
"                                "
};
