/* XPM */
static char *_2_dnd_no_drop[] = {
/* columns rows colors chars-per-pixel */
"32 32 3 1 ",
"  c None",
". c black",
"X c white",
/* pixels */
"    .. .. ..                    ",
"   .XX.XX.XX...                 ",
" ...XX.XXXXX.X.                 ",
".XX.XXXXXXXXXX.                 ",
".XXX.XXXXXXXXX.                 ",
" .XXXXX.X.X.XX.                 ",
"  .XXXX.X.X.XX.                 ",
"  .XXXX.X.X.XX.                 ",
"   .XXX.X.X.X.                  ",
"    .XXXXXXX.                   ",
"     .XXX..X.                   ",
"     ....  ..                   ",
"               .....            ",
"              .XXXXX.           ",
"             ..XXXXXX.          ",
"            .XX.XXXXXX.         ",
"            .XXX.XXXXX.         ",
"            .XXXX.XXXX.         ",
"            .XXXXX.XXX.         ",
"            .XXXXXX.XX.         ",
"             .XXXXXX..          ",
"              .XXXXX.           ",
"               .....            ",
"                                ",
"                                ",
"                                ",
"                                ",
"                                ",
"                                ",
"                                ",
"                                ",
"                                "
};
