/* XPM */
static char *_2_not_allowed[] = {
/* columns rows colors chars-per-pixel */
"32 32 3 1 ",
"  c None",
". c black",
"X c white",
/* pixels */
"      .....                     ",
"    .........                   ",
"   ...XXXXX...                  ",
"  ...XXXXXXX...                 ",
" .....XXXXXXX...                ",
" ..X...XXXXXXX..                ",
"...XX...XXXXXX...               ",
"..XXXX...XXXXXX..               ",
"..XXXXX...XXXXX..               ",
"..XXXXXX...XXXX..               ",
"...XXXXXX...XX...               ",
" ..XXXXXXX...X..                ",
" ...XXXXXXX.....                ",
"  ...XXXXXXX...                 ",
"   ...XXXXX...                  ",
"    .........                   ",
"      .....                     ",
"                                ",
"                                ",
"                                ",
"                                ",
"                                ",
"                                ",
"                                ",
"                                ",
"                                ",
"                                ",
"                                ",
"                                ",
"                                ",
"                                ",
"                                "
};
