/* XPM */
static char *_2_right_side[] = {
/* columns rows colors chars-per-pixel */
"32 32 3 1 ",
"  c None",
". c coral",
"X c cyan",
/* pixels */
"                    ....        ",
"                    .XX.        ",
"                    .XX.        ",
"                    .XX.        ",
"   ..      ..       .XX.        ",
"  .X.      .X.      .XX.        ",
" .XX........XX.     .XX.        ",
".XXXXXXXXXXXXXX.    .XX.        ",
".XXXXXXXXXXXXXX.    .XX.        ",
" .XX........XX.     .XX.        ",
"  .X.      .X.      .XX.        ",
"   ..      ..       .XX.        ",
"                    .XX.        ",
"                    .XX.        ",
"                    .XX.        ",
"                    ....        ",
"                                ",
"                                ",
"                                ",
"                                ",
"                                ",
"                                ",
"                                ",
"                                ",
"                                ",
"                                ",
"                                ",
"                                ",
"                                ",
"                                ",
"                                ",
"                                "
};
