/* XPM */
static char *dummy[]={
"32 32 3 1",
". c None",
"# c coral",
"a c cyan",
"..........#.....................",
".........##.....................",
"........#a#.....................",
".......#aa#.....................",
"......#aaa#.....................",
".....#aaaa#.....................",
"....#aaaaa#.....................",
"...#aaaaaa#.....................",
"..#aaaaaaa#.....................",
".#aaaaaaaa#.....................",
"#####aaaaa#.....................",
"....#aa#aa#.....................",
"...#aa#.#a#.....................",
"...#aa#..##.....................",
"..#aa#....#.....................",
"..#aa#..........................",
"...##...........................",
"................................",
"................................",
"................................",
"................................",
"................................",
"................................",
"................................",
"................................",
"................................",
"................................",
"................................",
"................................",
"................................",
"................................",
"................................"};
