/* XPM */
static char *_2_size_hor[] = {
/* columns rows colors chars-per-pixel */
"32 32 3 1 ",
"  c None",
". c coral",
"X c cyan",
/* pixels */
"   ..      ..                   ",
"  .X.      .X.                  ",
" .XX........XX.                 ",
".XXXXXXXXXXXXXX.                ",
".XXXXXXXXXXXXXX.                ",
" .XX........XX.                 ",
"  .X.      .X.                  ",
"   ..      ..                   ",
"                                ",
"                                ",
"                                ",
"                                ",
"                                ",
"                                ",
"                                ",
"                                ",
"                                ",
"                                ",
"                                ",
"                                ",
"                                ",
"                                ",
"                                ",
"                                ",
"                                ",
"                                ",
"                                ",
"                                ",
"                                ",
"                                ",
"                                ",
"                                "
};
