/* XPM */
static char *_2_size_fdiag[] = {
/* columns rows colors chars-per-pixel */
"32 32 3 1 ",
"  c None",
". c coral",
"X c cyan",
/* pixels */
".......                         ",
".XXXXX.                         ",
".XXXX..                         ",
".XXXX.                          ",
".XXXXX.                         ",
".X..XXX.                        ",
"... .XXX.                       ",
"     .XXX. ...                  ",
"      .XXX..X.                  ",
"       .XXXXX.                  ",
"        .XXXX.                  ",
"       ..XXXX.                  ",
"       .XXXXX.                  ",
"       .......                  ",
"                                ",
"                                ",
"                                ",
"                                ",
"                                ",
"                                ",
"                                ",
"                                ",
"                                ",
"                                ",
"                                ",
"                                ",
"                                ",
"                                ",
"                                ",
"                                ",
"                                ",
"                                "
};
