/* XPM */
static char *_2_vertical_text[] = {
/* columns rows colors chars-per-pixel */
"32 32 3 1 ",
"  c None",
". c black",
"X c white",
/* pixels */
" X              X               ",
"X.X            X.X              ",
"X.X     X      X.X              ",
" X.XXXXX.XXXXXX.X               ",
"  X............X                ",
" X.XXXXX.XXXXXX.X               ",
"X.X     X      X.X              ",
"X.X            X.X              ",
" X              X               ",
"                                ",
"                                ",
"                                ",
"                                ",
"                                ",
"                                ",
"                                ",
"                                ",
"                                ",
"                                ",
"                                ",
"                                ",
"                                ",
"                                ",
"                                ",
"                                ",
"                                ",
"                                ",
"                                ",
"                                ",
"                                ",
"                                ",
"                                "
};
