/* XPM */
static char * 32_wait08_xpm[] = {
"32 32 3 1",
" 	c None",
".	c black",
"+	c #FFFFFF",
"                                ",
"                                ",
"      .............             ",
"      ..+++++++++..             ",
"      .............             ",
"       .+++++++++.              ",
"       .+++++.+.+.              ",
"       .++.+.+.++.              ",
"       .+++.+.+++.              ",
"       ..+++.+++..              ",
"        ..+++++..               ",
"         ..+.+..                ",
"          ..+..                 ",
"          ..+..                 ",
"         ..+++..                ",
"        ..++.++..               ",
"       ..+++++++..              ",
"       .+++++++++.              ",
"       .+++++++++.              ",
"       .+++++++++.              ",
"       .+++.+.+++.              ",
"      .............             ",
"      ..+++++++++..             ",
"      .............             ",
"                                ",
"                                ",
"                                ",
"                                ",
"                                ",
"                                ",
"                                ",
"                                "};
