/* XPM */
static char * 32_wait09_xpm[] = {
"32 32 3 1",
" 	c None",
".	c black",
"+	c white",
"                                ",
"                                ",
"      .............             ",
"      ..+++++++++..             ",
"      .............             ",
"       .+++++++++.              ",
"       .+++++++.+.              ",
"       .++.+.+.++.              ",
"       .+++.+.+++.              ",
"       ..+++.+++..              ",
"        ..+++++..               ",
"         ..+++..                ",
"          ..+..                 ",
"          ..+..                 ",
"         ..+++..                ",
"        ..+++++..               ",
"       ..+++.+++..              ",
"       .+++++++++.              ",
"       .+++++++++.              ",
"       .+++++++++.              ",
"       .+++.+.+.+.              ",
"      .............             ",
"      ..+++++++++..             ",
"      .............             ",
"                                ",
"                                ",
"                                ",
"                                ",
"                                ",
"                                ",
"                                ",
"                                "};
