/* XPM */
static char *_2_wayland_cursor[] = {
/* columns rows colors chars-per-pixel */
"32 32 3 1 ",
"  c None",
". c coral",
"X c cyan",
/* pixels */
" ..     ..     ..               ",
".XX.   .XX.   .XX.              ",
".XX.  .XXXX.  .XX.              ",
".XXX. .XXXX. .XXX.              ",
" .XX. .X..X. .XX.               ",
" .XX. .X..X. .XX.               ",
" .XX. .X..X. .XX.               ",
" .XX..XX..XX..XX.               ",
"  .XX.X.  .X.XX.                ",
"  .XX.X.  .X.XX.                ",
"  .XXXX.  .XXXX.                ",
"  .XXXX.  .XXX.                 ",
"   .XX.    .XX.                 ",
"    ..      ..                  ",
"                                ",
"                                ",
"                                ",
"                                ",
"                                ",
"                                ",
"                                ",
"                                ",
"                                ",
"                                ",
"                                ",
"                                ",
"                                ",
"                                ",
"                                ",
"                                ",
"                                ",
"                                "
};
