/* XPM */
static char *dummy[]={
"36 36 3 1",
"# c None",
"a c cyan",
". c coral",
".###################################",
"..#############.............########",
".a.############.aaaaaaaaaaa.########",
".aa.###########...aaaaaaaaa.########",
".aaa.############.aaaaaaaaa.########",
".aaaa.###########...aaaaaaa.########",
".aaaaa.############.aaaaaaa.########",
".aaaaaa.###########.aaaaaaa.########",
".aaaaaaa.#########.aaaaaaaa.########",
".aaaaaaaa.#######.aaaaaaaaa.########",
".aaaaaaaaa.#####.aaaa...aaa.########",
".aaaaaaaaaa.####.aaa.###.aa.########",
".aaaaaaaaaaa.###.aaa.####.a.########",
".aaaaaaa......##.aaa.#####..########",
".aaaaaaa.#######.aa.#######.########",
".aaa.aaa.#######.aa.################",
".aa.#.aaa.######.aa.################",
".a.##.aaa.######.aa.################",
"..####.aaa.#####....################",
".#####.aaa.#########################",
"#######.aaa.########################",
"#######.aaa.########################",
"########...#########################",
"####################################",
"####################################",
"####################################",
"####################################",
"####################################",
"####################################",
"####################################",
"####################################",
"####################################",
"####################################",
"####################################",
"####################################",
"####################################"};
