/* XPM */
static char *dummy[]={
"36 36 3 1",
"# c None",
"a c cyan",
". c coral",
".........###########################",
".aaaaaaa.###########################",
".aaaaa...###########################",
".aaaaa.#############################",
".aaaaaa.############################",
".aaaaaaa.###########################",
".a..aaaaa.##########################",
".a.#.aaaaa.#########################",
"...##.aaaaa.########################",
"######.aaaaa.##...#######.....######",
"#######.aaaaa.#.a.#######.aaa.######",
"########.aaaaa..a.#######.aaa.######",
"#########.aaaaaaa.#######.aaa.######",
"##########.aaaaaa.#######.aaa.######",
"###########.aaaaa.#######.aaa.######",
"#########...aaaaa.#######.aaa.######",
"#########.aaaaaaa.#######.aaa.######",
"#########.........#######.aaa.######",
"#########################.aaa.######",
"#########################.aaa.######",
"#########################.aaa.######",
"#########################.aaa.######",
"#########################.aaa.######",
"#########################.aaa.######",
"#########################.aaa.######",
"#########.................aaa.######",
"#########.aaaaaaaaaaaaaaaaaaa.######",
"#########.aaaaaaaaaaaaaaaaaaa.######",
"#########.aaaaaaaaaaaaaaaaaaa.######",
"#########.....................######",
"####################################",
"####################################",
"####################################",
"####################################",
"####################################",
"####################################"};
