/* XPM */
static char *dummy[]={
"36 36 3 1",
". c None",
"a c cyan",
"# c coral",
"..........#####.....................",
"..........#aaa#.....................",
"..........#aaa#.....................",
"..........#aaa#.....................",
"..........#aaa#.....................",
".....##...#aaa#...##................",
"....#a#...#aaa#...#a#...............",
"...#aa#...#aaa#...#aa#..............",
"..#aaa#####aaa#####aaa#.............",
".#aaaaaaaaaaaaaaaaaaaaa#............",
"#aaaaaaaaaaaaaaaaaaaaaaa#...........",
".#aaaaaaaaaaaaaaaaaaaaa#............",
"..#aaa#####aaa#####aaa#.............",
"...#aa#...#aaa#...#aa#..............",
"....#a#...#aaa#...#a#...............",
".....##...#aaa#...##................",
"..........#aaa#.....................",
"..........#aaa#.....................",
"..........#aaa#.....................",
"..........#aaa#.....................",
"..........#####.....................",
"....................................",
"....................................",
"....................................",
"....................................",
"....................................",
"....................................",
"....................................",
"....................................",
"....................................",
"....................................",
"....................................",
"....................................",
"....................................",
"....................................",
"...................................."};
