/* XPM */
static char *dummy[]={
"36 36 3 1",
"# c None",
"a c cyan",
". c coral",
".###################################",
"..##################################",
".a.#################################",
".aa.################################",
".aaa.###############################",
".aaaa.##############################",
".aaaaa.#############################",
".aaaaaa.############################",
".aaaaaaa.###########################",
".aaaaaaaa.##########################",
".aaaaaaaaa.#########################",
".aaaaaaaaaa.########################",
".aaaaaaaaaaa.#######################",
".aaaaaaa......######################",
".aaaaaaa.###########################",
".aaa.aaa.###########################",
".aa.#.aaa.##########################",
".a.##.aaa.##########################",
"..####.aaa.#########################",
".#####.aaa.#########################",
"#######.aaa.###.a.a.a.a.a.a.a.a.a.##",
"#######.aaa.###a.a.a.a.a.a.a.a.a.a##",
"########...####.a.a.a.a.a.a.a.a.a.##",
"###############a.a#############a.a##",
"###############.a.#############.a.##",
"###############a.a#############a.a##",
"###############.a.#############.a.##",
"###############a.a#############a.a##",
"###############.a.#############.a.##",
"###############a.a#############a.a##",
"###############.a.a.a.a.a.a.a.a.a.##",
"###############a.a.a.a.a.a.a.a.a.a##",
"###############.a.a.a.a.a.a.a.a.a.##",
"####################################",
"####################################",
"####################################"};
