/* XPM */
static char *dummy[]={
"36 36 3 1",
". c None",
"a c cyan",
"# c coral",
"...#####............................",
"...#aaa#............................",
"...#aaa#............................",
"...#aaa#............................",
"...#aaa#............................",
"...#aaa#............................",
"...#aaa#............................",
"...#aaa#............................",
"...#aaa#............................",
"...#aaa#............................",
"...#aaa#............................",
"...#aaa#............................",
"...#aaa#............................",
"...#aaa#............................",
"...#aaa#............................",
"...#aaa#............................",
"...#aaa#............................",
"####aaa####.........................",
"#aaaaaaaaa#.........................",
".#aaaaaaa#..........................",
"..#aaaaa#...........................",
"...#aaa#............................",
"....#a#.............................",
".....#..............................",
"....................................",
"....................................",
"....................................",
"....................................",
"....................................",
"....................................",
"....................................",
"....................................",
"....................................",
"....................................",
"....................................",
"...................................."};
