/* XPM */
static char *dummy[]={
"36 36 3 1",
". c None",
"a c cyan",
"# c coral",
".............##.....................",
"............#aa#....................",
"............#aaa#...................",
"............#aaaa#..................",
"..........##aaaaaa#.................",
".......###aaaaaaaaa#................",
"......#aaaaaaaaaaaaa#...............",
".....#aaaaaaaaaaaaaaa#..............",
"....#aaaaaaaaaaaaaaaaa#.............",
"...#aaaaaaaaaaaaaaaaaa#.............",
"...#aaaaaaaaaaaaaaa###..............",
"...#aaaaa###aaaaaa#.................",
"...#aaaaa###aaaaaa#.................",
"...#aaaaa###aaaaa#..................",
"...#aaaa#aaaaaaaa#..................",
"..#aaaa#aaaaaaaaa#..................",
"..#aaa#aaaaaaaaa#...................",
".#aaa#aaaaaaaaa#....................",
".#aa#aaaaaaaaa#.....................",
"#aa#aaaa######......................",
"#a#aaa##............................",
"a#aa##..............................",
"#a##................................",
"....................................",
"....................................",
"....................................",
"....................................",
"....................................",
"....................................",
"....................................",
"....................................",
"....................................",
"....................................",
"....................................",
"....................................",
"...................................."};
