/* XPM */
static char *dummy[]={
"36 36 3 1",
"# c None",
". c coral",
"a c cyan",
".################.....##############",
"..##############.aaaaa.#############",
".a.############.aaaaaaa.############",
".aa.##########.aaaaaaaaa.###########",
".aaa.########.aaaa...aaaa.##########",
".aaaa.#######.aaa.###.aaa.##########",
".aaaaa.######.aaa.###.aaa.##########",
".aaaaaa.######...###.aaaa.##########",
".aaaaaaa.##########.aaaa.###########",
".aaaaaaaa.########.aaaa.############",
".aaaaaaaaa.######.aaaa.#############",
".aaaaaaaaaa.#####.aaa.##############",
".aaaaaaaaaaa.####.aaa.##############",
".aaaaaaa......###.aaa.##############",
".aaaaaaa.#########...###############",
".aaa.aaa.########.aaa.##############",
".aa.#.aaa.#######.aaa.##############",
".a.##.aaa.#######.aaa.##############",
"..####.aaa.#######...###############",
".#####.aaa.#########################",
"#######.aaa.########################",
"#######.aaa.########################",
"########...#########################",
"####################################",
"####################################",
"####################################",
"####################################",
"####################################",
"####################################",
"####################################",
"####################################",
"####################################",
"####################################",
"####################################",
"####################################",
"####################################"};
