/* XPM */
static char *dummy[]={
"36 36 3 1",
". c None",
"a c cyan",
"# c coral",
".....##.............................",
"....#a#.............................",
"...#aa#.............................",
"..#aaa##################............",
".#aaaaaaaaaaaaaaaaaaaaa#............",
"#aaaaaaaaaaaaaaaaaaaaaa#............",
".#aaaaaaaaaaaaaaaaaaaaa#............",
"..#aaa##################............",
"...#aa#.............................",
"....#a#.............................",
".....##.............................",
"....................................",
"....................................",
"....................................",
"....................................",
"....................................",
"....................................",
"....................................",
"....................................",
"....................................",
"....................................",
"....................................",
"....................................",
"....................................",
"....................................",
"....................................",
"....................................",
"....................................",
"....................................",
"....................................",
"....................................",
"....................................",
"....................................",
"....................................",
"....................................",
"...................................."};
