/* XPM */
static char *dummy[]={
"36 36 5 1",
"# c None",
"b c black",
"a c cyan",
". c coral",
"c c white",
".###################################",
"..##################################",
".a.#################################",
".aa.################################",
".aaa.###############################",
".aaaa.##############################",
".aaaaa.#############################",
".aaaaaa.############################",
".aaaaaaa.###########################",
".aaaaaaaa.##########################",
".aaaaaaaaa.#########################",
".aaaaaaaaaa.########################",
".aaaaaaaaaaa.#######################",
".aaaaaaa......######################",
".aaaaaaa.###########################",
".aaa.aaa.#############bbbbb#########",
".aa.#.aaa.##########bbbbbbbbb#######",
".a.##.aaa.#########bbbcccccbbb######",
"..####.aaa.#######bbbcccccccbbb#####",
".#####.aaa.######bbbbbcccccccbbb####",
"#######.aaa.#####bbcbbbcccccccbb####",
"#######.aaa.####bbbccbbbccccccbbb###",
"########...#####bbccccbbbccccccbb###",
"################bbcccccbbbcccccbb###",
"################bbccccccbbbccccbb###",
"################bbbccccccbbbccbbb###",
"#################bbcccccccbbbcbb####",
"#################bbbcccccccbbbbb####",
"##################bbbcccccccbbb#####",
"###################bbbcccccbbb######",
"####################bbbbbbbbb#######",
"######################bbbbb#########",
"####################################",
"####################################",
"####################################",
"####################################"};
