/* XPM */
static char *dummy[]={
"36 36 5 1",
"# c None",
"b c black",
"a c cyan",
". c coral",
"c c white",
".###################################",
"..##################################",
".a.#################################",
".aa.################################",
".aaa.###############################",
".aaaa.##############################",
".aaaaa.#############################",
".aaaaaa.############################",
".aaaaaaa.###########################",
".aaaaaaaa.##########################",
".aaaaaaaaa.#########################",
".aaaaaaaaaa.########################",
".aaaaa.......#######################",
".aaaa.##############################",
".aaa.###############################",
".aa.################################",
".a.#######bbbbb#####################",
"..######bbbbbbbbb###################",
".######bbbbbbbbbbb##################",
"######bbbbbbbbbbbbb#################",
"#####bbbbbbbbbbbbbbb################",
"#####bbccbbbbbbbccbb################",
"####bbbcccbbbbbcccbbb###############",
"####bbcccccbbbcccccbb###############",
"####bbccccccbccccccbb###############",
"####bbcccccbbbcccccbb###############",
"####bbbcccbbbbbcccbbb###############",
"#####bbccbbbbbbbccbb################",
"#####bbbbbbbbbbbbbbb################",
"######bbbbbbbbbbbbb#################",
"#######bbbbbbbbbbb##################",
"########bbbbbbbbb###################",
"##########bbbbb#####################",
"####################################",
"####################################",
"####################################"};
