/* XPM */
static char *dummy[]={
"36 36 3 1",
". c None",
"# c black",
"a c white",
".........#######....................",
"........#aaaaaaa#...................",
".......#aaaaaaaaa#..................",
".......#aaaaaaaaa#..................",
"......#aa##aaa##aa#.................",
"......#a###aaa###a#.................",
"......#a###aaa###a#.................",
"......#aaaaa#aaaaa#.................",
".......#aaa###aaa#..................",
".......#aaaaaaaaa#..................",
"........#aaaaaaa#...................",
"..###...#aa#aaaa#...###.............",
".#aa#....#a#a#a#....#aa#............",
".#aa#....#######....#aa#............",
".#aa##.............##aa#............",
"#aaaaa##.........##aaaaa#...........",
"#aa###aa##.....##aa###aa#...........",
".###..##aa##.##aa##..###............",
"........##aa##a##...................",
".........###aa##....................",
".......##aa###aa##..................",
".###.##aa##...##aa##.###............",
"#aa##aa##.......##aa##aa#...........",
"#aaaa##...........##aaaa#...........",
".#aa#...............#aa#............",
"..###...............###.............",
"....................................",
"....................................",
"....................................",
"....................................",
"....................................",
"....................................",
"....................................",
"....................................",
"....................................",
"...................................."};
