/* XPM */
static char *dummy[]={
"36 36 3 1",
". c None",
"a c black",
"# c white",
"..................###...............",
".................#aaa#..............",
"................#a##aa#.............",
"...............#a####aa#............",
"..............#aa#####a#............",
".............#aaaa####a#............",
"............#aaaaaa##a#.............",
"...........#aaaaaaaaa#..............",
"..........#aaaaaaaaa#...............",
".........#aaaaaaaaa#................",
"........#aaaaaaaaa#.................",
".......#aaaaaaaaa#..................",
"......#aaaaaaaaa#...................",
".....#aaaaaaaaa#....................",
"....#aaaaaaaaa#.....................",
"...#aaaaaaaaa#......................",
"..#aaaaaaaaa#.......................",
".#aaaaaaaaa#........................",
".#a#aaaaaa#.........................",
"#aa##aaaa#..........................",
"#aa###aa#...........................",
"#a#aaaa#............................",
"#aaaa##.............................",
"#####...............................",
"....................................",
"....................................",
"....................................",
"....................................",
"....................................",
"....................................",
"....................................",
"....................................",
"....................................",
"....................................",
"....................................",
"...................................."};
