/* XPM */
static char *dummy[]={
"36 36 3 1",
". c None",
"a c cyan",
"# c coral",
"..........#.........................",
".........#a#........................",
"........#aaa#.......................",
".......#aaaaa#......................",
"......#aaaaaaa#.....................",
".....#aaaaaaaaa#....................",
".....####aaa####....................",
"........#aaa#.......................",
"........#aaa#.......................",
"........#aaa#.......................",
"#########aaa#########...............",
"#aaaaaaaaaaaaaaaaaaa#...............",
"#aaaaaaaaaaaaaaaaaaa#...............",
"#aaaaaaaaaaaaaaaaaaa#...............",
"#########aaa#########...............",
"........#aaa#.......................",
"........#aaa#.......................",
"........#aaa#.......................",
".....####aaa####....................",
".....#aaaaaaaaa#....................",
"......#aaaaaaa#.....................",
".......#aaaaa#......................",
"........#aaa#.......................",
".........#a#........................",
"..........#.........................",
"....................................",
"....................................",
"....................................",
"....................................",
"....................................",
"....................................",
"....................................",
"....................................",
"....................................",
"....................................",
"...................................."};
