/* XPM */
static char *dummy[]={
"36 36 3 1",
". c None",
"a c cyan",
"# c coral",
".....##..........##.................",
"....#a#..........#a#................",
"...#aa#..........#aa#...............",
"..#aaa############aaa#..............",
".#aaaaaaaaaaaaaaaaaaaa#.............",
"#aaaaaaaaaaaaaaaaaaaaaa#............",
".#aaaaaaaaaaaaaaaaaaaa#.............",
"..#aaa############aaa#..............",
"...#aa#..........#aa#...............",
"....#a#..........#a#................",
".....##..........##.................",
"....................................",
"....................................",
"....................................",
"....................................",
"....................................",
"....................................",
"....................................",
"....................................",
"....................................",
"....................................",
"....................................",
"....................................",
"....................................",
"....................................",
"....................................",
"....................................",
"....................................",
"....................................",
"....................................",
"....................................",
"....................................",
"....................................",
"....................................",
"....................................",
"...................................."};
