/* XPM */
static char *dummy[]={
"36 36 3 1",
"# c None",
"a c cyan",
". c coral",
".........###########################",
".aaaaaaa.###########################",
".aaaaa...###########################",
".aaaaa.#############################",
".aaaaaa.############################",
".aaaaaaa.###########################",
".a..aaaaa.##########################",
".a.#.aaaaa.#########################",
"...##.aaaaa.########################",
"######.aaaaa.##...##################",
"#######.aaaaa.#.a.##################",
"########.aaaaa..a.##################",
"#########.aaaaaaa.##################",
"##########.aaaaaa.##################",
"###########.aaaaa.##################",
"#########...aaaaa.##################",
"#########.aaaaaaa.##################",
"#########.........##################",
"####################################",
"####################################",
"####################################",
"####################################",
"####################################",
"####################################",
"####################################",
"####################################",
"####################################",
"####################################",
"####################################",
"####################################",
"####################################",
"####################################",
"####################################",
"####################################",
"####################################",
"####################################"};
