/* XPM */
static char *dummy[]={
"36 36 3 1",
". c None",
"a c cyan",
"# c coral",
".........#####################......",
".........#aaaaaaaaaaaaaaaaaaa#......",
".........#aaaaaaaaaaaaaaaaaaa#......",
".........#aaaaaaaaaaaaaaaaaaa#......",
".........#################aaa#......",
".........................#aaa#......",
".........................#aaa#......",
".........................#aaa#......",
".........................#aaa#......",
".........................#aaa#......",
".........................#aaa#......",
".........................#aaa#......",
".........#########.......#aaa#......",
".........#aaaaaaa#.......#aaa#......",
".........###aaaaa#.......#aaa#......",
"...........#aaaaa#.......#aaa#......",
"..........#aaaaaa#.......#aaa#......",
".........#aaaaaaa#.......#aaa#......",
"........#aaaaa##a#.......#aaa#......",
".......#aaaaa#.#a#.......#aaa#......",
"......#aaaaa#..###.......#####......",
"###..#aaaaa#........................",
"#a#.#aaaaa#.........................",
"#a##aaaaa#..........................",
"#aaaaaaa#...........................",
"#aaaaaa#............................",
"#aaaaa#.............................",
"#aaaaa###...........................",
"#aaaaaaa#...........................",
"#########...........................",
"....................................",
"....................................",
"....................................",
"....................................",
"....................................",
"...................................."};
