/* XPM */
static char *dummy[]={
"36 36 3 1",
". c None",
"a c black",
"# c white",
".#.................#................",
"#a#...............#a#...............",
"#a#...............#a#...............",
"#a#.......#.......#a#...............",
".#a#.....#a#.....#a#................",
"..#a######a######a#.................",
"...#aaaaaaaaaaaaa#..................",
"..#a######a######a#.................",
".#a#.....#a#.....#a#................",
"#a#.......#.......#a#...............",
"#a#...............#a#...............",
"#a#...............#a#...............",
".#.................#................",
"....................................",
"....................................",
"....................................",
"....................................",
"....................................",
"....................................",
"....................................",
"....................................",
"....................................",
"....................................",
"....................................",
"....................................",
"....................................",
"....................................",
"....................................",
"....................................",
"....................................",
"....................................",
"....................................",
"....................................",
"....................................",
"....................................",
"...................................."};
