/* XPM */
static char *dummy[]={
"36 36 3 1",
". c None",
"# c black",
"a c white",
"....................................",
"....................................",
"....................................",
"..........#################.........",
"..........##aaaaaaaaaaaaa##.........",
"..........##aaaaaaaaaaaaa##.........",
"..........#################.........",
"...........#aaaaaaaaaaaaa#..........",
"...........#aaaaaaaaaaaaa#..........",
"...........#a#aaaaaaaaa#a#..........",
"...........#aa#a#aaa#a#aa#..........",
"...........#aaa#a#a#a#aaa#..........",
"...........##aaa#a#a#aaa##..........",
"............##aaa#a#aaa##...........",
".............##aaa#aaa##............",
"..............##aaaaa##.............",
"...............##aaa##..............",
"................##a##...............",
"................##a##...............",
"...............##aaa##..............",
"..............##aaaaa##.............",
".............##aaaaaaa##............",
"............##aaaa#aaaa##...........",
"...........##aaaaaaaaaaa##..........",
"...........#aaaaaaaaaaaaa#..........",
"...........#aaaaaaaaaaaaa#..........",
"...........#aaaaaaaaaaaaa#..........",
"...........#aaaaaa#aaaaaa#..........",
"...........#a#a#a#a#a#a#a#..........",
"..........#################.........",
"..........##aaaaaaaaaaaaa##.........",
"..........##aaaaaaaaaaaaa##.........",
"..........#################.........",
"....................................",
"....................................",
"...................................."};
