/* XPM */
static char *dummy[]={
"36 36 3 1",
". c None",
"# c black",
"a c white",
"....................................",
"....................................",
"....................................",
"..........#################.........",
"..........##aaaaaaaaaaaaa##.........",
"..........##aaaaaaaaaaaaa##.........",
"..........#################.........",
"...........#aaaaaaaaaaaaa#..........",
"...........#aaaaaaaaaaaaa#..........",
"...........#aaaaaaaaaaaaa#..........",
"...........#aaaaaaaaaaaaa#..........",
"...........#aaaaaaaaaaaaa#..........",
"...........##aaaaaaa#aaa##..........",
"............##aaaaa#aaa##...........",
".............##aaa#aaa##............",
"..............##aaaaa##.............",
"...............##a#a##..............",
"................##a##...............",
"................##a##...............",
"...............##aaa##..............",
"..............##aaaaa##.............",
".............##aaa#aaa##............",
"............##aaaaaaaaa##...........",
"...........##aaaaaaaaaaa##..........",
"...........#aaaaaaaaaaaaa#..........",
"...........#aaaaaaaa#aaaa#..........",
"...........#aaaaaaa#a#aaa#..........",
"...........#aa#a#a#a#a#aa#..........",
"...........#a#a#a#a#a#a#a#..........",
"..........#################.........",
"..........##aaaaaaaaaaaaa##.........",
"..........##aaaaaaaaaaaaa##.........",
"..........#################.........",
"....................................",
"....................................",
"...................................."};
