/* XPM */
static char *dummy[]={
"36 36 5 1",
". c None",
"b c None",
"c c None",
"# c black",
"a c white",
"...........#........................",
"..........###.......................",
".........#aa##......................",
"........#aaaa#......................",
".......#aaaa#a#.....................",
"......#aaaa#aaa#....................",
".....#aaaa#aaaaa#...................",
"....#aaaa#aaaaaaa#..................",
"...#aaaa#aaaaaaaa#..................",
"..#aaaa#aaaaaaaaa#..................",
".#aaaa#aaaaaaaaaa#..................",
"##aaa#aaaaaaaaaaa#..................",
".##a#aaaaaaaaaaaa#..................",
"..##aaaaaaaaaaaaa#..................",
"....#aaaaaaaaaaaa#..................",
".....#aaaaaaaaaaa#########..........",
".....b#aaaaaaaaaaaaaaaaaaa#.........",
".......#########aaaaaaaaaaa#........",
"...............#aaaaaaaaa#aa#.......",
"...............#aa#a#a#a#a#aa##.....",
"...............#a#a#a#a#a#aa#a##....",
"...............#aa#a#a#a#aa#aaa##...",
"...............#a#a#a#a#aa#aaaa#....",
"...............#aa#a#a#aa#aaaa#.....",
"...............#a#a#a#aa#aaaa#......",
"...............#aa#a#aa#aaaa#.......",
"................#aa#aa#aaaa#........",
".................#aaa#aaaa#.........",
".................c#a#aaaa#..........",
"...................#aaaa#...........",
"...................##aa#............",
"....................###.............",
".....................#..............",
"....................................",
"....................................",
"...................................."};
