/* XPM */
static char *dummy[]={
"36 36 5 1",
". c None",
"c c None",
"b c None",
"# c black",
"a c white",
"....................................",
"....................................",
"....................................",
".....................#..............",
"....................###.............",
"...................##aa#............",
"...................#aaaa#...........",
"..................#a#aaaa#..........",
".................#aaa#aaaa#.........",
"................#aaaaa#aaaa#........",
"...............#aaaaaaa#aaaa#.......",
"...............#aaaaa#aa#aaaa#......",
"...............#aaaa#a#aa#aaaa#.....",
"...............#a#a#a#a#aa#aaaa#....",
"...............#aa#a#a#a#aa#aaa##...",
"...............#a#a#a#a#a#aa#a##....",
"...............#aa#a#a#a#a#aa##.....",
"...............#aaa#a#a#a#aa#.......",
".......#########a#aa#a#a#aa#b.......",
"......#aaaaaaaaaaaaaaaaaaa#.........",
".....#aaaaaaaaaaa#########..........",
"....#aaaaaaaaaaaa#..................",
"..##aaaaaaaaaaaaa#..................",
".##a#aaaaaaaaaaaa#..................",
"##aaa#aaaaaaaaaaa#..................",
".#aaaa#aaaaaaaaaa#..................",
"..#aaaa#aaaaaaaaa#..................",
"...#aaaa#aaaaaaaa#..................",
"....#aaaa#aaaaaaa#..................",
".....#aaaa#aaaaa#...................",
"......#aaaa#aaa#c...................",
".......#aaaa#a#.....................",
"........#aaaa#......................",
".........#aa##......................",
"..........###.......................",
"...........#........................"};
