/* XPM */
static char *dummy[]={
"36 36 3 1",
". c None",
"# c black",
"a c white",
"....................................",
"....................................",
"....................................",
"....................................",
"....................................",
"....................................",
"....................................",
"....................................",
"....................................",
"...####......................####...",
"...##########..........##########...",
"...#aa#aaaaa##........##aaaaa#aa#...",
"...#aa#aaaaaa##......##aaaaa##aa#...",
"...#aa#aaaaaaa##....##aaaaa#a#aa#...",
"...#aa#aaaaaaaa##..##aaaaa#a##aa#...",
"...#aa#aaaaaaaaa####aaaaa#a#a#aa#...",
"...#aa#aaaaaaaaaa##aaaaa#a#a##aa#...",
"...#aa#aaaaaaaaaaaaaa#a#a#a#a#aa#...",
"...#aa#aaaaaaaaaa##aaa#a#a#a##aa#...",
"...#aa#aaaaaaaaa####aaa#a#a#a#aa#...",
"...#aa#aaaaaaaa##..##aaa#a#a##aa#...",
"...#aa#aaaaaaa##....##aaa#a#a#aa#...",
"...#aa#aaaaaa##......##aaa#a##aa#...",
"...#aa#aaaaa##........##aaaaa#aa#...",
"...##########..........##########...",
"...####......................####...",
"....................................",
"....................................",
"....................................",
"....................................",
"....................................",
"....................................",
"....................................",
"....................................",
"....................................",
"...................................."};
