/* XPM */
static char *dummy[]={
"36 36 3 1",
". c None",
"# c black",
"a c white",
"......#####.........................",
"...###aaaaa###......................",
"..#aaaaaaaaaaa#.....................",
".#aaaaaaaaaaaaa#....................",
".#aaaaa###aaaaa#....................",
".#aaaaa###aaaaa#....................",
"#aaaaaa###aaaaaa#...................",
"#aaa#########aaa#...................",
"#aaa#########aaa#...................",
"#aaa#########aaa#...................",
"#aaaaaa###aaaaaa#...................",
".#aaaaa###aaaaa#....................",
".#aaaaa###aaaaa#....................",
".#aaaaaaaaaaaa###...................",
"..#aaaaaaaaaa####...................",
"...###aaaaa#######..................",
"......#####..######.................",
"...............#####................",
"................#####...............",
".................#####..............",
"..................#####.............",
"...................#####............",
"....................#####...........",
".....................#####..........",
"......................###...........",
".......................#............",
"....................................",
"....................................",
"....................................",
"....................................",
"....................................",
"....................................",
"....................................",
"....................................",
"....................................",
"...................................."};
