/* XPM */
static char * 60_default_xpm[] = {
"60 60 3 1",
" 	c None",
".	c coral",
"+	c cyan",
".                                                           ",
"..                                                          ",
".+.                                                         ",
".++.                                                        ",
".+++.                                                       ",
".++++.                                                      ",
".+++++.                                                     ",
".++++++.                                                    ",
".+++++++.                                                   ",
".++++++++.                                                  ",
".+++++++++.                                                 ",
".++++++++++.                                                ",
".+++++++++++.                                               ",
".++++++++++++.                                              ",
".+++++++++++++.                                             ",
".++++++++++++++.                                            ",
".+++++++++++++++.                                           ",
".++++++++++++++++.                                          ",
".+++++++++++++++++.                                         ",
".++++++++++++++++++.                                        ",
".++++++++++..........                                       ",
".+++++.++++.                                                ",
".++++. .++++.                                               ",
".+++.  .++++.                                               ",
".++.    .++++.                                              ",
".+.     .++++.                                              ",
"..       .++++.                                             ",
".        .++++.                                             ",
"          .++++.                                            ",
"          .++++.                                            ",
"           .++++.                                           ",
"           .++++.                                           ",
"            ....                                            ",
"                                                            ",
"                                                            ",
"                                                            ",
"                                                            ",
"                                                            ",
"                                                            ",
"                                                            ",
"                                                            ",
"                                                            ",
"                                                            ",
"                                                            ",
"                                                            ",
"                                                            ",
"                                                            ",
"                                                            ",
"                                                            ",
"                                                            ",
"                                                            ",
"                                                            ",
"                                                            ",
"                                                            ",
"                                                            ",
"                                                            ",
"                                                            ",
"                                                            ",
"                                                            ",
"                                                            "};
