/* XPM */
static char *copy[] = {
/* columns rows colors chars-per-pixel */
"24 24 3 1 ",
"  c None",
". c black",
"X c white",
/* pixels */
"    .. .. ..            ",
"   .XX.XX.XX...         ",
" ...XX.XXXXX.X.         ",
".XX.XXXXXXXXXX.         ",
".XXX.XXXXXXXXX.         ",
" .XXXXX.X.X.XX.         ",
"  .XXXX.X.X.XX.         ",
"  .XXXX.X.X.XX.         ",
"   .XXX.X.X.X.          ",
"    .XXXXXXX.           ",
"     .XXX..X.           ",
"     ....  ..  XXX      ",
"               X.X      ",
"               X.X      ",
"            XXXX.XXXX   ",
"            X.......X   ",
"            XXXX.XXXX   ",
"               X.X      ",
"               X.X      ",
"               XXX      ",
"                        ",
"                        ",
"                        ",
"                        "
};
