/* XPM */
static char *text[] = {
/* columns rows colors chars-per-pixel */
"32 32 3 1 ",
"  c None",
". c white",
"o c black",
/* pixels */
"                                ",
"                                ",
"                                ",
"                                ",
"                                ",
"                                ",
"                                ",
"                                ",
"            o..  o..            ",
"              o.o.              ",
"               o.               ",
"               o.               ",
"               o.               ",
"               o.               ",
"               o.               ",
"               o.               ",
"              o...              ",
"               o.               ",
"               o.               ",
"               o.               ",
"               o.               ",
"               o.               ",
"              o.o.              ",
"            o..  o..            ",
"                                ",
"                                ",
"                                ",
"                                ",
"                                ",
"                                ",
"                                ",
"                                "
};
